<?xml version="1.0" encoding="utf-8"?>
<!-- Generator: Adobe Illustrator 23.0.3, SVG Export Plug-In . SVG Version: 6.00 Build 0)  -->
<svg version="1.1" id="Calque_1" xmlns="http://www.w3.org/2000/svg" xmlns:xlink="http://www.w3.org/1999/xlink" x="0px" y="0px"
	 viewBox="0 0 540.28 279.07" style="enable-background:new 0 0 540.28 279.07;" xml:space="preserve">
<style type="text/css">
	.st0{fill:#F4F8F9;}
	.st1{fill:#563E7C;}
</style>
<g>
	<path class="st0" d="M115.39,118.42c7.55,0,12.31,1.5,15.63,4.66c2.62,2.57,4.55,6.32,4.55,11.46c0,6.26-2.57,11.35-6.69,14.45
		c-4.07,3.05-9.26,4.23-15.84,4.23h-12.53v-1.5c4.6-0.43,4.82-0.8,4.82-5.19v-21.36c0-4.6-0.64-4.82-4.82-5.25v-1.5H115.39z
		 M109.99,146.09c0,4.01,1.71,5.14,5.73,5.14c9.63,0,14.56-6.58,14.56-15.95c0-5.83-1.98-10.28-6.21-12.85
		c-2.46-1.55-5.57-2.14-9.15-2.14c-2.41,0-3.69,0.32-4.23,0.75c-0.48,0.32-0.7,0.91-0.7,3V146.09z"/>
	<path class="st0" d="M159.77,148.66c-3.43,4.28-7.17,5.19-8.89,5.19c-6.53,0-10.49-5.35-10.49-11.51c0-3.64,1.28-7.01,3.48-9.37
		c2.25-2.52,5.19-3.91,7.98-3.91c4.66,0,8.19,4.01,8.19,8.3c-0.05,1.07-0.21,1.55-1.07,1.77c-1.07,0.21-7.92,0.7-14.29,0.91
		c-0.16,7.17,4.23,10.12,8.03,10.12c2.19,0,4.23-0.91,6.21-2.73L159.77,148.66z M150.56,131.11c-2.46,0-4.87,2.3-5.62,6.64
		c3,0,6,0,9.15-0.16c0.96,0,1.28-0.27,1.28-1.07C155.43,133.68,153.56,131.11,150.56,131.11z"/>
	<path class="st0" d="M183.37,148.66c-3.43,4.28-7.17,5.19-8.89,5.19c-6.53,0-10.49-5.35-10.49-11.51c0-3.64,1.28-7.01,3.48-9.37
		c2.25-2.52,5.19-3.91,7.98-3.91c4.66,0,8.19,4.01,8.19,8.3c-0.05,1.07-0.21,1.55-1.07,1.77c-1.07,0.21-7.92,0.7-14.29,0.91
		c-0.16,7.17,4.23,10.12,8.03,10.12c2.19,0,4.23-0.91,6.21-2.73L183.37,148.66z M174.16,131.11c-2.46,0-4.87,2.3-5.62,6.64
		c3,0,6,0,9.15-0.16c0.96,0,1.28-0.27,1.28-1.07C179.03,133.68,177.16,131.11,174.16,131.11z"/>
	<path class="st0" d="M186.95,130.84c2.52-0.38,5.3-1.28,7.76-2.3c0,1.28,0,3,0,4.28c0.16-0.11,4.44-2.57,4.66-2.68
		c1.28-0.7,2.41-1.07,3.1-1.07c5.89,0,9.47,4.92,9.47,10.22c0,8.14-6.42,13.27-13.44,14.56c-1.61-0.05-3.05-0.54-3.8-0.96v7.23
		c0,3.96,0.43,4.28,4.55,4.66v1.5h-12.69v-1.5c3.48-0.38,3.91-0.64,3.91-4.23v-24.36c0-3.21-0.11-3.43-3.53-3.91V130.84z
		 M194.72,149.15c1.23,1.23,3.32,2.09,5.08,2.09c4.66,0,7.65-3.91,7.65-9.9c0-5.78-3.37-9.05-7.17-9.05c-1.87,0-4.12,1.23-5.57,2.3
		V149.15z"/>
	<path class="st0" d="M229.08,142.72h-12.31l0.37-3.27h12.31L229.08,142.72z"/>
	<path class="st0" d="M266.6,144.65c-0.75,2.57-2.14,6.42-2.95,8.08c-1.55,0.32-5.73,1.28-9.79,1.28
		c-12.79,0-19.32-8.51-19.32-17.88c0-10.92,8.3-18.47,20.29-18.47c4.6,0,8.35,0.96,10.12,1.23c0.21,2.41,0.59,5.62,1.02,8.3
		l-1.66,0.38c-1.07-3.59-2.36-5.78-5.08-6.91c-1.39-0.64-3.59-1.02-5.62-1.02c-8.83,0-13.49,6.53-13.49,15.36
		c0,10.33,5.35,16.97,14.02,16.97c5.46,0,8.14-2.52,10.87-7.87L266.6,144.65z"/>
	<path class="st0" d="M296.15,151.98c-2.57,0.37-5.46,1.07-8.19,1.87c0-0.86,0-2.78,0-4.12c-2.89,2.41-5.25,4.12-8.19,4.12
		c-3.59,0-6.69-2.19-6.69-8.03v-10.38c0-2.89-0.43-3.21-1.77-3.48l-1.5-0.27v-1.39c2.3-0.11,5.84-0.64,7.65-0.96
		c-0.16,1.71-0.16,4.28-0.16,7.81v7.28c0,4.71,2.46,6.05,4.87,6.05c1.98,0,3.96-0.86,5.78-2.57v-12.47c0-2.89-0.64-3.27-2.46-3.53
		l-1.71-0.21v-1.39c3.43-0.16,7.17-0.75,8.4-0.96v17.93c0,2.68,0.43,3.05,2.46,3.16l1.5,0.05V151.98z"/>
	<path class="st0" d="M298.02,153.21v-1.5c3.43-0.32,3.85-0.59,3.85-4.12v-25.64c0-3.27-0.27-3.59-3.69-4.01v-1.39
		c2.89-0.32,6.21-1.18,7.92-1.82c0,2.52,0,5.08,0,7.6v25.27c0,3.53,0.32,3.8,3.8,4.12v1.5H298.02z"/>
	<path class="st0" d="M322.91,153.16c-0.91,0.48-1.77,0.7-2.3,0.7c-3.43,0-5.25-2.09-5.25-6.37v-15.58h-3.69l-0.21-0.64l1.45-1.55
		h2.46v-4.5c1.02-1.07,2.57-2.46,3.59-3.53l0.8,0.11c-0.11,2.25-0.16,5.35-0.16,7.92h6.1c0.48,0.54,0.32,1.71-0.32,2.19h-5.78v13.7
		c0,4.34,1.71,5.14,3.11,5.14c1.28,0,2.52-0.48,3.26-0.86l0.48,1.39L322.91,153.16z"/>
	<path class="st0" d="M353.85,151.98c-2.57,0.37-5.46,1.07-8.19,1.87c0-0.86,0-2.78,0-4.12c-2.89,2.41-5.25,4.12-8.19,4.12
		c-3.59,0-6.69-2.19-6.69-8.03v-10.38c0-2.89-0.43-3.21-1.77-3.48l-1.5-0.27v-1.39c2.3-0.11,5.83-0.64,7.65-0.96
		c-0.16,1.71-0.16,4.28-0.16,7.81v7.28c0,4.71,2.46,6.05,4.87,6.05c1.98,0,3.96-0.86,5.78-2.57v-12.47c0-2.89-0.64-3.27-2.46-3.53
		l-1.71-0.21v-1.39c3.43-0.16,7.17-0.75,8.4-0.96v17.93c0,2.68,0.43,3.05,2.46,3.16l1.5,0.05V151.98z"/>
	<path class="st0" d="M368.84,153.21h-12.31v-1.5c3.37-0.32,3.69-0.59,3.69-4.07v-11.13c0-3.53-0.21-3.69-3.32-4.07v-1.34
		c2.62-0.43,5.03-1.07,7.55-2.19c0,1.77,0,4.12,0,5.89c1.87-2.78,4.12-5.73,6.8-5.73c1.98,0,3.11,1.23,3.11,2.57
		c0,1.23-0.86,2.41-1.82,2.94c-0.54,0.32-0.96,0.27-1.39-0.11c-0.8-0.8-1.45-1.34-2.41-1.34c-1.12,0-3.1,1.66-4.28,4.39v10.06
		c0,3.53,0.27,3.8,4.39,4.12V153.21z"/>
	<path class="st0" d="M376.81,153.21v-1.5c3.37-0.32,3.75-0.59,3.75-4.23v-11.03c0-3.32-0.16-3.53-3.37-4.07v-1.28
		c2.78-0.48,5.3-1.18,7.6-2.14c0,2.25,0,4.5,0,6.74v11.78c0,3.64,0.38,3.91,3.85,4.23v1.5H376.81z M382.38,123.72
		c-1.5,0-2.84-1.34-2.84-2.84c0-1.71,1.34-2.94,2.89-2.94c1.5,0,2.73,1.23,2.73,2.94C385.16,122.38,383.93,123.72,382.38,123.72z"/>
	<path class="st0" d="M406.73,153.21v-1.5c3.1-0.32,3.43-0.7,3.43-4.34v-8.83c0-3.75-1.34-6.26-4.87-6.26
		c-2.2,0-4.28,1.28-5.94,2.78v12.53c0,3.69,0.32,3.8,3.48,4.12v1.5h-11.56v-1.5c3.53-0.37,3.86-0.59,3.86-4.12v-11.03
		c0-3.48-0.38-3.64-3.27-4.12v-1.39c2.62-0.43,5.25-1.12,7.49-2.14c0,1.23,0,2.94,0,4.23c1.07-0.75,2.25-1.55,3.64-2.46
		c1.5-0.96,2.89-1.61,4.44-1.61c4.28,0,6.96,3.16,6.96,8.35v10.17c0,3.64,0.32,3.8,3.43,4.12v1.5H406.73z"/>
	<path class="st0" d="M428.03,145.4c-1.28,1.02-1.77,2.03-1.77,2.68c0,0.96,0.91,2.03,3.32,2.03c1.98,0,4.23-0.05,6-0.05
		c3.43,0,7.81,1.12,7.81,6.42c0,5.57-6.58,10.81-13.7,10.81c-6.05,0-9.31-3.53-9.42-6.69c0-1.18,0.48-2.19,1.34-3.05
		c1.07-1.12,3.16-2.89,4.39-3.85c-1.93-0.54-3.32-1.77-4.01-2.89c-0.48-0.8-0.64-1.77-0.64-2.3c2.03-0.75,3.85-2.25,4.92-3.69
		L428.03,145.4z M430.6,145.93c-4.98,0-9.1-3.05-9.1-8.08c0-6.1,5.46-8.94,9.63-8.94c1.77,0,3.53,0.48,5.14,1.34
		c2.46,0,5.67-0.43,7.17-0.8l0.32,0.48c-0.32,0.86-1.18,2.36-1.98,2.84c-0.8,0-2.57-0.21-3.32-0.27c0.91,1.23,1.55,2.94,1.55,4.87
		C440.02,143.2,435.21,145.93,430.6,145.93z M431.84,153.86c-2.62,0-3.8,0.32-4.76,1.12c-1.5,1.23-2.57,2.84-2.57,4.39
		c0,2.94,3.05,5.14,7.17,5.14c5.09,0,7.98-2.62,7.98-6.05c0-1.82-0.86-3.27-2.36-3.91C435.96,153.96,434.08,153.86,431.84,153.86z
		 M430.6,130.63c-2.41,0-4.55,2.19-4.55,6.42c0,4.23,2.14,7.17,5.09,7.17c2.36-0.11,4.44-2.09,4.44-6.42
		C435.58,133.62,433.6,130.63,430.6,130.63z"/>
</g>
<polygon class="st1" points="166.81,74.09 273.08,12.73 379.35,74.09 379.35,196.8 273.08,258.15 166.81,196.8 "/>
<g>
	<g>
		<path class="st0" d="M187.34,125.9c3.65,0,5.95,0.72,7.56,2.25c1.27,1.24,2.2,3.05,2.2,5.54c0,3.03-1.24,5.49-3.23,6.99
			c-1.97,1.48-4.48,2.04-7.66,2.04h-6.06V142c2.23-0.21,2.33-0.39,2.33-2.51v-10.33c0-2.23-0.31-2.33-2.33-2.54v-0.72H187.34z
			 M184.73,139.28c0,1.94,0.83,2.48,2.77,2.48c4.66,0,7.04-3.18,7.04-7.71c0-2.82-0.96-4.97-3-6.21c-1.19-0.75-2.69-1.04-4.42-1.04
			c-1.17,0-1.79,0.16-2.04,0.36c-0.23,0.16-0.34,0.44-0.34,1.45V139.28z"/>
		<path class="st0" d="M208.67,140.52c-1.66,2.07-3.47,2.51-4.3,2.51c-3.16,0-5.07-2.59-5.07-5.56c0-1.76,0.62-3.39,1.68-4.53
			c1.09-1.22,2.51-1.89,3.86-1.89c2.25,0,3.96,1.94,3.96,4.01c-0.03,0.52-0.1,0.75-0.52,0.85c-0.52,0.1-3.83,0.34-6.91,0.44
			c-0.08,3.47,2.04,4.89,3.88,4.89c1.06,0,2.04-0.44,3-1.32L208.67,140.52z M204.22,132.04c-1.19,0-2.35,1.11-2.72,3.21
			c1.45,0,2.9,0,4.43-0.08c0.47,0,0.62-0.13,0.62-0.52C206.57,133.28,205.67,132.04,204.22,132.04z"/>
		<path class="st0" d="M219.85,140.52c-1.66,2.07-3.47,2.51-4.3,2.51c-3.16,0-5.07-2.59-5.07-5.56c0-1.76,0.62-3.39,1.68-4.53
			c1.09-1.22,2.51-1.89,3.86-1.89c2.25,0,3.96,1.94,3.96,4.01c-0.03,0.52-0.1,0.75-0.52,0.85c-0.52,0.1-3.83,0.34-6.91,0.44
			c-0.08,3.47,2.04,4.89,3.88,4.89c1.06,0,2.04-0.44,3-1.32L219.85,140.52z M215.4,132.04c-1.19,0-2.35,1.11-2.72,3.21
			c1.45,0,2.9,0,4.43-0.08c0.47,0,0.62-0.13,0.62-0.52C217.75,133.28,216.85,132.04,215.4,132.04z"/>
		<path class="st0" d="M221.3,131.91c1.22-0.18,2.56-0.62,3.75-1.11c0,0.62,0,1.45,0,2.07c0.08-0.05,2.15-1.24,2.25-1.29
			c0.62-0.34,1.16-0.52,1.5-0.52c2.85,0,4.58,2.38,4.58,4.94c0,3.93-3.11,6.42-6.5,7.04c-0.78-0.03-1.47-0.26-1.84-0.47v3.49
			c0,1.92,0.21,2.07,2.2,2.25v0.72h-6.13v-0.72c1.68-0.18,1.89-0.31,1.89-2.04v-11.77c0-1.55-0.05-1.66-1.71-1.89V131.91z
			 M225.05,140.76c0.6,0.6,1.61,1.01,2.46,1.01c2.25,0,3.7-1.89,3.7-4.79c0-2.79-1.63-4.37-3.47-4.37c-0.91,0-1.99,0.6-2.69,1.11
			V140.76z"/>
		<path class="st0" d="M241.67,137.65h-5.95l0.18-1.58h5.95L241.67,137.65z"/>
		<path class="st0" d="M259.81,138.58c-0.36,1.24-1.04,3.11-1.42,3.91c-0.75,0.16-2.77,0.62-4.74,0.62c-6.18,0-9.34-4.11-9.34-8.64
			c0-5.28,4.01-8.93,9.81-8.93c2.22,0,4.04,0.47,4.89,0.6c0.1,1.16,0.29,2.72,0.49,4.01l-0.8,0.18c-0.52-1.73-1.14-2.79-2.46-3.34
			c-0.67-0.31-1.73-0.49-2.72-0.49c-4.27,0-6.52,3.16-6.52,7.43c0,4.99,2.59,8.2,6.78,8.2c2.64,0,3.93-1.22,5.25-3.8L259.81,138.58z
			"/>
		<path class="st0" d="M267.66,131.05c3.24,0,5.64,2.46,5.64,5.8c0,4.19-3.11,6.19-5.64,6.19c-3.57,0-5.75-2.87-5.75-5.77
			C261.91,133.04,265.2,131.05,267.66,131.05z M267.35,131.93c-1.58,0-3,1.53-3,4.53c0,3.29,1.45,5.67,3.57,5.67
			c1.6,0,2.95-1.16,2.95-4.71C270.87,134.39,269.63,131.93,267.35,131.93z"/>
		<path class="st0" d="M282.57,142.72V142c1.5-0.16,1.66-0.34,1.66-2.1v-4.27c0-1.81-0.65-3.03-2.35-3.03
			c-1.06,0-2.07,0.62-2.87,1.35v6.06c0,1.79,0.16,1.84,1.68,1.99v0.72h-5.59V142c1.71-0.18,1.86-0.28,1.86-1.99v-5.33
			c0-1.68-0.18-1.76-1.58-1.99v-0.67c1.27-0.21,2.54-0.54,3.62-1.04c0,0.6,0,1.42,0,2.04c0.52-0.36,1.09-0.75,1.76-1.19
			c0.72-0.47,1.4-0.78,2.15-0.78c2.07,0,3.36,1.53,3.36,4.04v4.92c0,1.76,0.16,1.84,1.66,1.99v0.72H282.57z"/>
		<path class="st0" d="M296.21,134.44c-0.47-1.5-1.14-2.54-2.72-2.54c-0.91,0-1.61,0.65-1.61,1.68c0,1.11,0.75,1.63,2.2,2.3
			c2.23,1.06,3.34,1.84,3.34,3.55c0,2.38-2.17,3.6-4.22,3.6c-1.35,0-2.54-0.41-3.08-0.72c-0.13-0.75-0.36-2.17-0.46-3.03l0.75-0.13
			c0.47,1.66,1.37,3,3.18,3c0.98,0,1.81-0.67,1.81-1.76c0-1.16-0.7-1.76-2.07-2.43c-1.81-0.88-3.29-1.71-3.29-3.57
			c0-1.89,1.6-3.34,4.04-3.34c1.09,0,1.97,0.26,2.48,0.34c0.08,0.62,0.26,2.25,0.39,2.87L296.21,134.44z"/>
		<path class="st0" d="M308.89,140.39c-1.14,1.5-2.87,2.64-4.42,2.64c-3.29,0-5.23-2.67-5.23-5.43c0-2.04,0.88-3.75,2.61-5.07
			c1.37-1.06,2.92-1.48,3.93-1.48c1.17,0,2.02,0.36,2.41,0.7c0.36,0.28,0.41,0.47,0.41,0.75c0,0.62-0.65,1.16-0.93,1.16
			c-0.13,0-0.23-0.05-0.49-0.26c-0.8-0.72-1.68-1.09-2.61-1.09c-1.71,0-3.21,1.45-3.21,4.14c-0.03,3.6,2.43,4.79,3.93,4.79
			c1.09,0,1.97-0.28,3.16-1.42L308.89,140.39z"/>
		<path class="st0" d="M310.16,142.72V142c1.63-0.16,1.81-0.28,1.81-2.04v-5.33c0-1.6-0.08-1.71-1.63-1.97v-0.62
			c1.35-0.23,2.56-0.57,3.68-1.04c0,1.09,0,2.17,0,3.26v5.69c0,1.76,0.18,1.89,1.86,2.04v0.72H310.16z M312.85,128.46
			c-0.72,0-1.37-0.65-1.37-1.37c0-0.83,0.65-1.42,1.4-1.42c0.72,0,1.32,0.6,1.32,1.42C314.2,127.82,313.6,128.46,312.85,128.46z"/>
		<path class="st0" d="M326.7,140.52c-1.66,2.07-3.47,2.51-4.3,2.51c-3.16,0-5.07-2.59-5.07-5.56c0-1.76,0.62-3.39,1.68-4.53
			c1.09-1.22,2.51-1.89,3.86-1.89c2.25,0,3.96,1.94,3.96,4.01c-0.03,0.52-0.1,0.75-0.52,0.85c-0.52,0.1-3.83,0.34-6.91,0.44
			c-0.08,3.47,2.04,4.89,3.88,4.89c1.06,0,2.04-0.44,3-1.32L326.7,140.52z M322.25,132.04c-1.19,0-2.36,1.11-2.72,3.21
			c1.45,0,2.9,0,4.42-0.08c0.47,0,0.62-0.13,0.62-0.52C324.6,133.28,323.7,132.04,322.25,132.04z"/>
		<path class="st0" d="M335.81,142.72V142c1.5-0.16,1.66-0.34,1.66-2.1v-4.27c0-1.81-0.65-3.03-2.36-3.03
			c-1.06,0-2.07,0.62-2.87,1.35v6.06c0,1.79,0.16,1.84,1.68,1.99v0.72h-5.59V142c1.71-0.18,1.86-0.28,1.86-1.99v-5.33
			c0-1.68-0.18-1.76-1.58-1.99v-0.67c1.27-0.21,2.54-0.54,3.62-1.04c0,0.6,0,1.42,0,2.04c0.52-0.36,1.09-0.75,1.76-1.19
			c0.72-0.47,1.4-0.78,2.15-0.78c2.07,0,3.37,1.53,3.37,4.04v4.92c0,1.76,0.15,1.84,1.66,1.99v0.72H335.81z"/>
		<path class="st0" d="M352.48,140.39c-1.14,1.5-2.87,2.64-4.42,2.64c-3.29,0-5.23-2.67-5.23-5.43c0-2.04,0.88-3.75,2.61-5.07
			c1.37-1.06,2.92-1.48,3.93-1.48c1.17,0,2.02,0.36,2.41,0.7c0.36,0.28,0.41,0.47,0.41,0.75c0,0.62-0.65,1.16-0.93,1.16
			c-0.13,0-0.23-0.05-0.49-0.26c-0.8-0.72-1.68-1.09-2.61-1.09c-1.71,0-3.21,1.45-3.21,4.14c-0.03,3.6,2.43,4.79,3.93,4.79
			c1.09,0,1.97-0.28,3.16-1.42L352.48,140.39z"/>
		<path class="st0" d="M363.27,140.52c-1.66,2.07-3.47,2.51-4.3,2.51c-3.16,0-5.07-2.59-5.07-5.56c0-1.76,0.62-3.39,1.68-4.53
			c1.09-1.22,2.51-1.89,3.86-1.89c2.25,0,3.96,1.94,3.96,4.01c-0.03,0.52-0.1,0.75-0.52,0.85c-0.52,0.1-3.83,0.34-6.91,0.44
			c-0.08,3.47,2.04,4.89,3.88,4.89c1.06,0,2.04-0.44,3-1.32L363.27,140.52z M358.82,132.04c-1.19,0-2.35,1.11-2.72,3.21
			c1.45,0,2.9,0,4.43-0.08c0.47,0,0.62-0.13,0.62-0.52C361.17,133.28,360.27,132.04,358.82,132.04z"/>
	</g>
</g>
</svg>
