<?xml version="1.0" encoding="utf-8"?>
<!-- Generator: Adobe Illustrator 23.0.3, SVG Export Plug-In . SVG Version: 6.00 Build 0)  -->
<svg version="1.1" id="Calque_1" xmlns="http://www.w3.org/2000/svg" xmlns:xlink="http://www.w3.org/1999/xlink" x="0px" y="0px"
	 viewBox="0 0 540.28 279.07" style="enable-background:new 0 0 540.28 279.07;" xml:space="preserve">
<style type="text/css">
	.st0{fill:#563E7C;}
	.st1{fill:#F4F8F9;}
</style>
<path class="st0" d="M431.23,263.95H105.96c-47.8,0-86.55-38.75-86.55-86.55V104.6c0-47.8,38.75-86.55,86.55-86.55h325.27
	c47.8,0,86.55,38.75,86.55,86.55v72.81C517.78,225.2,479.03,263.95,431.23,263.95z"/>
<g>
	<path class="st1" d="M115.39,118.42c7.55,0,12.31,1.5,15.63,4.66c2.62,2.57,4.55,6.32,4.55,11.46c0,6.26-2.57,11.35-6.69,14.45
		c-4.07,3.05-9.26,4.23-15.84,4.23h-12.53v-1.5c4.6-0.43,4.82-0.8,4.82-5.19v-21.36c0-4.6-0.64-4.82-4.82-5.25v-1.5H115.39z
		 M109.99,146.09c0,4.01,1.71,5.14,5.73,5.14c9.63,0,14.56-6.58,14.56-15.95c0-5.83-1.98-10.28-6.21-12.85
		c-2.46-1.55-5.57-2.14-9.15-2.14c-2.41,0-3.69,0.32-4.23,0.75c-0.48,0.32-0.7,0.91-0.7,3V146.09z"/>
	<path class="st1" d="M159.77,148.66c-3.43,4.28-7.17,5.19-8.89,5.19c-6.53,0-10.49-5.35-10.49-11.51c0-3.64,1.28-7.01,3.48-9.37
		c2.25-2.52,5.19-3.91,7.98-3.91c4.66,0,8.19,4.01,8.19,8.3c-0.05,1.07-0.21,1.55-1.07,1.77c-1.07,0.21-7.92,0.7-14.29,0.91
		c-0.16,7.17,4.23,10.12,8.03,10.12c2.19,0,4.23-0.91,6.21-2.73L159.77,148.66z M150.56,131.11c-2.46,0-4.87,2.3-5.62,6.64
		c3,0,6,0,9.15-0.16c0.96,0,1.28-0.27,1.28-1.07C155.43,133.68,153.56,131.11,150.56,131.11z"/>
	<path class="st1" d="M183.37,148.66c-3.43,4.28-7.17,5.19-8.89,5.19c-6.53,0-10.49-5.35-10.49-11.51c0-3.64,1.28-7.01,3.48-9.37
		c2.25-2.52,5.19-3.91,7.98-3.91c4.66,0,8.19,4.01,8.19,8.3c-0.05,1.07-0.21,1.55-1.07,1.77c-1.07,0.21-7.92,0.7-14.29,0.91
		c-0.16,7.17,4.23,10.12,8.03,10.12c2.19,0,4.23-0.91,6.21-2.73L183.37,148.66z M174.16,131.11c-2.46,0-4.87,2.3-5.62,6.64
		c3,0,6,0,9.15-0.16c0.96,0,1.28-0.27,1.28-1.07C179.03,133.68,177.16,131.11,174.16,131.11z"/>
	<path class="st1" d="M186.95,130.84c2.52-0.38,5.3-1.28,7.76-2.3c0,1.28,0,3,0,4.28c0.16-0.11,4.44-2.57,4.66-2.68
		c1.28-0.7,2.41-1.07,3.1-1.07c5.89,0,9.47,4.92,9.47,10.22c0,8.14-6.42,13.27-13.44,14.56c-1.61-0.05-3.05-0.54-3.8-0.96v7.23
		c0,3.96,0.43,4.28,4.55,4.66v1.5h-12.69v-1.5c3.48-0.38,3.91-0.64,3.91-4.23v-24.36c0-3.21-0.11-3.43-3.53-3.91V130.84z
		 M194.72,149.15c1.23,1.23,3.32,2.09,5.08,2.09c4.66,0,7.65-3.91,7.65-9.9c0-5.78-3.37-9.05-7.17-9.05c-1.87,0-4.12,1.23-5.57,2.3
		V149.15z"/>
	<path class="st1" d="M229.08,142.72h-12.31l0.37-3.27h12.31L229.08,142.72z"/>
	<path class="st1" d="M266.6,144.65c-0.75,2.57-2.14,6.42-2.95,8.08c-1.55,0.32-5.73,1.28-9.79,1.28
		c-12.79,0-19.32-8.51-19.32-17.88c0-10.92,8.3-18.47,20.29-18.47c4.6,0,8.35,0.96,10.12,1.23c0.21,2.41,0.59,5.62,1.02,8.3
		l-1.66,0.38c-1.07-3.59-2.36-5.78-5.08-6.91c-1.39-0.64-3.59-1.02-5.62-1.02c-8.83,0-13.49,6.53-13.49,15.36
		c0,10.33,5.35,16.97,14.02,16.97c5.46,0,8.14-2.52,10.87-7.87L266.6,144.65z"/>
	<path class="st1" d="M296.15,151.98c-2.57,0.37-5.46,1.07-8.19,1.87c0-0.86,0-2.78,0-4.12c-2.89,2.41-5.25,4.12-8.19,4.12
		c-3.59,0-6.69-2.19-6.69-8.03v-10.38c0-2.89-0.43-3.21-1.77-3.48l-1.5-0.27v-1.39c2.3-0.11,5.84-0.64,7.65-0.96
		c-0.16,1.71-0.16,4.28-0.16,7.81v7.28c0,4.71,2.46,6.05,4.87,6.05c1.98,0,3.96-0.86,5.78-2.57v-12.47c0-2.89-0.64-3.27-2.46-3.53
		l-1.71-0.21v-1.39c3.43-0.16,7.17-0.75,8.4-0.96v17.93c0,2.68,0.43,3.05,2.46,3.16l1.5,0.05V151.98z"/>
	<path class="st1" d="M298.02,153.21v-1.5c3.43-0.32,3.85-0.59,3.85-4.12v-25.64c0-3.27-0.27-3.59-3.69-4.01v-1.39
		c2.89-0.32,6.21-1.18,7.92-1.82c0,2.52,0,5.08,0,7.6v25.27c0,3.53,0.32,3.8,3.8,4.12v1.5H298.02z"/>
	<path class="st1" d="M322.91,153.16c-0.91,0.48-1.77,0.7-2.3,0.7c-3.43,0-5.25-2.09-5.25-6.37v-15.58h-3.69l-0.21-0.64l1.45-1.55
		h2.46v-4.5c1.02-1.07,2.57-2.46,3.59-3.53l0.8,0.11c-0.11,2.25-0.16,5.35-0.16,7.92h6.1c0.48,0.54,0.32,1.71-0.32,2.19h-5.78v13.7
		c0,4.34,1.71,5.14,3.11,5.14c1.28,0,2.52-0.48,3.26-0.86l0.48,1.39L322.91,153.16z"/>
	<path class="st1" d="M353.85,151.98c-2.57,0.37-5.46,1.07-8.19,1.87c0-0.86,0-2.78,0-4.12c-2.89,2.41-5.25,4.12-8.19,4.12
		c-3.59,0-6.69-2.19-6.69-8.03v-10.38c0-2.89-0.43-3.21-1.77-3.48l-1.5-0.27v-1.39c2.3-0.11,5.83-0.64,7.65-0.96
		c-0.16,1.71-0.16,4.28-0.16,7.81v7.28c0,4.71,2.46,6.05,4.87,6.05c1.98,0,3.96-0.86,5.78-2.57v-12.47c0-2.89-0.64-3.27-2.46-3.53
		l-1.71-0.21v-1.39c3.43-0.16,7.17-0.75,8.4-0.96v17.93c0,2.68,0.43,3.05,2.46,3.16l1.5,0.05V151.98z"/>
	<path class="st1" d="M368.84,153.21h-12.31v-1.5c3.37-0.32,3.69-0.59,3.69-4.07v-11.13c0-3.53-0.21-3.69-3.32-4.07v-1.34
		c2.62-0.43,5.03-1.07,7.55-2.19c0,1.77,0,4.12,0,5.89c1.87-2.78,4.12-5.73,6.8-5.73c1.98,0,3.11,1.23,3.11,2.57
		c0,1.23-0.86,2.41-1.82,2.94c-0.54,0.32-0.96,0.27-1.39-0.11c-0.8-0.8-1.45-1.34-2.41-1.34c-1.12,0-3.1,1.66-4.28,4.39v10.06
		c0,3.53,0.27,3.8,4.39,4.12V153.21z"/>
	<path class="st1" d="M376.81,153.21v-1.5c3.37-0.32,3.75-0.59,3.75-4.23v-11.03c0-3.32-0.16-3.53-3.37-4.07v-1.28
		c2.78-0.48,5.3-1.18,7.6-2.14c0,2.25,0,4.5,0,6.74v11.78c0,3.64,0.38,3.91,3.85,4.23v1.5H376.81z M382.38,123.72
		c-1.5,0-2.84-1.34-2.84-2.84c0-1.71,1.34-2.94,2.89-2.94c1.5,0,2.73,1.23,2.73,2.94C385.16,122.38,383.93,123.72,382.38,123.72z"/>
	<path class="st1" d="M406.73,153.21v-1.5c3.1-0.32,3.43-0.7,3.43-4.34v-8.83c0-3.75-1.34-6.26-4.87-6.26
		c-2.2,0-4.28,1.28-5.94,2.78v12.53c0,3.69,0.32,3.8,3.48,4.12v1.5h-11.56v-1.5c3.53-0.37,3.86-0.59,3.86-4.12v-11.03
		c0-3.48-0.38-3.64-3.27-4.12v-1.39c2.62-0.43,5.25-1.12,7.49-2.14c0,1.23,0,2.94,0,4.23c1.07-0.75,2.25-1.55,3.64-2.46
		c1.5-0.96,2.89-1.61,4.44-1.61c4.28,0,6.96,3.16,6.96,8.35v10.17c0,3.64,0.32,3.8,3.43,4.12v1.5H406.73z"/>
	<path class="st1" d="M428.03,145.4c-1.28,1.02-1.77,2.03-1.77,2.68c0,0.96,0.91,2.03,3.32,2.03c1.98,0,4.23-0.05,6-0.05
		c3.43,0,7.81,1.12,7.81,6.42c0,5.57-6.58,10.81-13.7,10.81c-6.05,0-9.31-3.53-9.42-6.69c0-1.18,0.48-2.19,1.34-3.05
		c1.07-1.12,3.16-2.89,4.39-3.85c-1.93-0.54-3.32-1.77-4.01-2.89c-0.48-0.8-0.64-1.77-0.64-2.3c2.03-0.75,3.85-2.25,4.92-3.69
		L428.03,145.4z M430.6,145.93c-4.98,0-9.1-3.05-9.1-8.08c0-6.1,5.46-8.94,9.63-8.94c1.77,0,3.53,0.48,5.14,1.34
		c2.46,0,5.67-0.43,7.17-0.8l0.32,0.48c-0.32,0.86-1.18,2.36-1.98,2.84c-0.8,0-2.57-0.21-3.32-0.27c0.91,1.23,1.55,2.94,1.55,4.87
		C440.02,143.2,435.21,145.93,430.6,145.93z M431.84,153.86c-2.62,0-3.8,0.32-4.76,1.12c-1.5,1.23-2.57,2.84-2.57,4.39
		c0,2.94,3.05,5.14,7.17,5.14c5.09,0,7.98-2.62,7.98-6.05c0-1.82-0.86-3.27-2.36-3.91C435.96,153.96,434.08,153.86,431.84,153.86z
		 M430.6,130.63c-2.41,0-4.55,2.19-4.55,6.42c0,4.23,2.14,7.17,5.09,7.17c2.36-0.11,4.44-2.09,4.44-6.42
		C435.58,133.62,433.6,130.63,430.6,130.63z"/>
</g>
</svg>
