<?xml version="1.0" encoding="utf-8"?>
<!-- Generator: Adobe Illustrator 23.0.3, SVG Export Plug-In . SVG Version: 6.00 Build 0)  -->
<svg version="1.1" id="Calque_1" xmlns="http://www.w3.org/2000/svg" xmlns:xlink="http://www.w3.org/1999/xlink" x="0px" y="0px"
	 viewBox="0 0 686.51 637.21" style="enable-background:new 0 0 686.51 637.21;" xml:space="preserve">
<style type="text/css">
	.st0{fill:none;}
	.st1{fill:#7B56A3;}
	.st2{fill:#FAFBFB;}
	.st3{fill:#F7F0F2;}
</style>
<path class="st0" d="M75.97,20.39c0-28.07,42.19-50.79,94.33-50.79"/>
<g>
	<circle class="st1" cx="343.21" cy="323" r="307.56"/>
</g>
<g>
	<path class="st2" d="M266.76,194.89h44.33c28.61,0,47.96,1.31,58.04,3.94c10.08,2.63,17.75,6.94,23.01,12.95
		c5.25,6,8.54,12.69,9.85,20.05c1.31,7.37,1.97,21.83,1.97,43.41v79.79c0,20.45-0.96,34.12-2.88,41.02
		c-1.92,6.89-5.28,12.29-10.06,16.18c-4.78,3.89-10.69,6.61-17.73,8.16c-7.04,1.55-17.64,2.32-31.8,2.32h-74.72V194.89z M326,233.87
		v149.86c8.54,0,13.79-1.71,15.76-5.14c1.97-3.42,2.96-12.73,2.96-27.93v-88.51c0-10.32-0.33-16.93-0.99-19.84
		c-0.66-2.91-2.16-5.04-4.5-6.4C336.88,234.55,332.47,233.87,326,233.87z"/>
</g>
<g>
	<path class="st3" d="M529.9,477.11v6.96c-11.99,13.35-23,24.36-33.03,33.03c-10.03,8.67-19.83,15.34-29.39,20.02
		c-9.57,4.67-18.81,7.01-27.73,7.01c-7.71,0-14.33-1.54-19.86-4.6c-5.53-3.07-9.71-7.55-12.53-13.44
		c-2.82-5.89-4.23-12.87-4.23-20.93c0-6.35,1.02-13.08,3.05-20.18c2.03-7.1,4.98-14.27,8.83-21.52c3.85-7.24,8.58-14.72,14.19-22.43
		c5.6-7.71,12.19-15.81,19.75-24.3c7.85-8.78,15.59-16.36,23.23-22.75c7.64-6.39,14.56-11.4,20.77-15.04
		c6.21-3.64,11.97-6.35,17.29-8.14c5.32-1.78,9.72-2.68,13.22-2.68c3.57,0,6.6,0.86,9.1,2.57c2.5,1.71,4.42,4.21,5.78,7.49
		c1.35,3.28,2.03,7.07,2.03,11.35c0,8.07-2.75,17.04-8.24,26.93c-5.5,9.89-12.35,19.43-20.56,28.64
		c-8.21,9.21-16.04,16.72-23.5,22.54c-7.46,5.82-12.83,8.73-16.11,8.73c-2.21,0-4.27-0.87-6.16-2.62c-1.89-1.75-2.84-3.73-2.84-5.94
		c0-4.07,2.16-8.99,6.48-14.77c4.32-5.78,9.03-11.08,14.13-15.9c5.1-4.82,8.15-7.23,9.15-7.23c0.5,0,0.75,0.21,0.75,0.64
		c0,0.64-0.37,1.75-1.12,3.32c-0.75,1.57-1.12,2.54-1.12,2.89c0,0.57,0.21,0.86,0.64,0.86c1.21,0,4.71-3.25,10.49-9.74
		c5.78-6.49,11.08-13.65,15.9-21.47c4.82-7.82,7.23-14.22,7.23-19.22c0-2.07-0.45-3.66-1.34-4.76c-0.89-1.11-2.23-1.66-4.01-1.66
		c-5,0-12.58,4.05-22.75,12.15c-10.17,8.1-20.59,18.42-31.26,30.94c-10.67,12.53-19.58,25.46-26.71,38.81
		c-7.14,13.35-10.71,25.09-10.71,35.22c0,5.85,0.87,10.74,2.62,14.67c1.75,3.92,4.32,6.96,7.71,9.1c3.39,2.14,7.48,3.21,12.26,3.21
		c10.35,0,22.09-4.03,35.22-12.1C499.67,504.69,514.12,492.81,529.9,477.11z"/>
</g>
</svg>
