<?xml version="1.0" encoding="utf-8"?>
<!-- Generator: Adobe Illustrator 23.0.3, SVG Export Plug-In . SVG Version: 6.00 Build 0)  -->
<svg version="1.1" id="Calque_1" xmlns="http://www.w3.org/2000/svg" xmlns:xlink="http://www.w3.org/1999/xlink" x="0px" y="0px"
	 viewBox="0 0 841.89 595.28" style="enable-background:new 0 0 841.89 595.28;" xml:space="preserve">
<style type="text/css">
	.st0{fill:#563E7C;stroke:#563E7C;stroke-miterlimit:10;}
	.st1{fill:#F4F8F9;}
</style>
<polygon class="st0" points="124.96,166.09 258.15,89.19 391.34,166.09 391.34,319.88 258.15,396.78 124.96,319.88 "/>
<g>
	<g>
		<path class="st1" d="M154.44,222.4c4.46,0,7.28,0.89,9.25,2.75c1.55,1.52,2.69,3.74,2.69,6.78c0,3.7-1.52,6.71-3.96,8.55
			c-2.41,1.8-5.48,2.5-9.37,2.5h-7.41v-0.89c2.72-0.25,2.85-0.47,2.85-3.07v-12.63c0-2.72-0.38-2.85-2.85-3.1v-0.89H154.44z
			 M151.24,238.77c0,2.37,1.01,3.04,3.39,3.04c5.7,0,8.61-3.89,8.61-9.44c0-3.45-1.17-6.08-3.67-7.6c-1.46-0.92-3.29-1.27-5.41-1.27
			c-1.42,0-2.18,0.19-2.5,0.44c-0.28,0.19-0.41,0.54-0.41,1.77V238.77z"/>
		<path class="st1" d="M180.53,240.29c-2.03,2.53-4.24,3.07-5.26,3.07c-3.86,0-6.21-3.17-6.21-6.81c0-2.15,0.76-4.15,2.06-5.54
			c1.33-1.49,3.07-2.31,4.72-2.31c2.75,0,4.84,2.38,4.84,4.91c-0.03,0.63-0.13,0.92-0.63,1.04c-0.63,0.13-4.69,0.41-8.45,0.54
			c-0.1,4.24,2.5,5.98,4.75,5.98c1.3,0,2.5-0.54,3.67-1.61L180.53,240.29z M175.09,229.91c-1.46,0-2.88,1.36-3.32,3.93
			c1.77,0,3.55,0,5.41-0.09c0.57,0,0.76-0.16,0.76-0.63C177.97,231.43,176.86,229.91,175.09,229.91z"/>
		<path class="st1" d="M194.21,240.29c-2.03,2.53-4.24,3.07-5.26,3.07c-3.86,0-6.21-3.17-6.21-6.81c0-2.15,0.76-4.15,2.06-5.54
			c1.33-1.49,3.07-2.31,4.72-2.31c2.75,0,4.84,2.38,4.84,4.91c-0.03,0.63-0.13,0.92-0.63,1.04c-0.63,0.13-4.69,0.41-8.45,0.54
			c-0.1,4.24,2.5,5.98,4.75,5.98c1.3,0,2.5-0.54,3.67-1.61L194.21,240.29z M188.77,229.91c-1.46,0-2.88,1.36-3.32,3.93
			c1.77,0,3.55,0,5.41-0.09c0.57,0,0.76-0.16,0.76-0.63C191.65,231.43,190.54,229.91,188.77,229.91z"/>
		<path class="st1" d="M195.99,229.75c1.49-0.22,3.13-0.76,4.59-1.36c0,0.76,0,1.77,0,2.53c0.09-0.06,2.63-1.52,2.75-1.58
			c0.76-0.41,1.42-0.63,1.84-0.63c3.48,0,5.6,2.91,5.6,6.05c0,4.81-3.8,7.85-7.95,8.61c-0.95-0.03-1.8-0.32-2.25-0.57v4.27
			c0,2.34,0.25,2.53,2.69,2.75v0.89h-7.5v-0.89c2.06-0.22,2.31-0.38,2.31-2.5v-14.41c0-1.9-0.06-2.03-2.09-2.31V229.75z
			 M200.58,240.58c0.73,0.73,1.96,1.23,3.01,1.23c2.75,0,4.53-2.31,4.53-5.86c0-3.42-1.99-5.35-4.24-5.35
			c-1.11,0-2.44,0.73-3.29,1.36V240.58z"/>
		<path class="st1" d="M220.91,236.78h-7.28l0.22-1.93h7.28L220.91,236.78z"/>
		<path class="st1" d="M243.1,237.92c-0.44,1.52-1.27,3.8-1.74,4.78c-0.92,0.19-3.39,0.76-5.79,0.76c-7.57,0-11.43-5.03-11.43-10.58
			c0-6.46,4.91-10.92,12-10.92c2.72,0,4.94,0.57,5.98,0.73c0.13,1.42,0.35,3.32,0.6,4.91l-0.98,0.22c-0.63-2.12-1.39-3.42-3.01-4.08
			c-0.82-0.38-2.12-0.6-3.32-0.6c-5.22,0-7.98,3.86-7.98,9.09c0,6.11,3.17,10.04,8.3,10.04c3.23,0,4.81-1.49,6.43-4.65L243.1,237.92
			z"/>
		<path class="st1" d="M252.7,228.7c3.96,0,6.9,3.01,6.9,7.09c0,5.13-3.8,7.57-6.9,7.57c-4.37,0-7.03-3.51-7.03-7.06
			C245.67,231.14,249.69,228.7,252.7,228.7z M252.32,229.78c-1.93,0-3.67,1.87-3.67,5.54c0,4.02,1.77,6.93,4.37,6.93
			c1.96,0,3.61-1.42,3.61-5.76C256.63,232.79,255.11,229.78,252.32,229.78z"/>
		<path class="st1" d="M270.94,242.98v-0.89c1.84-0.19,2.03-0.41,2.03-2.56v-5.22c0-2.22-0.79-3.7-2.88-3.7
			c-1.3,0-2.53,0.76-3.51,1.65v7.41c0,2.19,0.19,2.25,2.06,2.44v0.89h-6.84v-0.89c2.09-0.22,2.28-0.35,2.28-2.44v-6.52
			c0-2.06-0.22-2.15-1.93-2.44v-0.82c1.55-0.25,3.1-0.67,4.43-1.27c0,0.73,0,1.74,0,2.5c0.63-0.44,1.33-0.92,2.15-1.46
			c0.89-0.57,1.71-0.95,2.63-0.95c2.53,0,4.12,1.87,4.12,4.94v6.02c0,2.15,0.19,2.25,2.03,2.44v0.89H270.94z"/>
		<path class="st1" d="M287.63,232.85c-0.57-1.84-1.39-3.1-3.32-3.1c-1.11,0-1.96,0.79-1.96,2.06c0,1.36,0.92,1.99,2.69,2.82
			c2.72,1.3,4.08,2.25,4.08,4.34c0,2.91-2.66,4.4-5.16,4.4c-1.65,0-3.1-0.51-3.77-0.89c-0.16-0.92-0.44-2.66-0.57-3.7l0.92-0.16
			c0.57,2.03,1.68,3.67,3.89,3.67c1.2,0,2.22-0.82,2.22-2.15c0-1.42-0.85-2.15-2.53-2.98c-2.22-1.08-4.02-2.09-4.02-4.37
			c0-2.31,1.96-4.08,4.94-4.08c1.33,0,2.41,0.32,3.04,0.41c0.09,0.76,0.32,2.75,0.48,3.51L287.63,232.85z"/>
		<path class="st1" d="M303.15,240.13c-1.39,1.84-3.51,3.23-5.41,3.23c-4.02,0-6.4-3.26-6.4-6.65c0-2.5,1.08-4.59,3.2-6.21
			c1.68-1.3,3.58-1.81,4.81-1.81c1.42,0,2.47,0.44,2.94,0.85c0.44,0.35,0.51,0.57,0.51,0.92c0,0.76-0.79,1.42-1.14,1.42
			c-0.16,0-0.28-0.06-0.6-0.32c-0.98-0.89-2.06-1.33-3.2-1.33c-2.09,0-3.93,1.77-3.93,5.07c-0.03,4.4,2.98,5.86,4.81,5.86
			c1.33,0,2.41-0.35,3.86-1.74L303.15,240.13z"/>
		<path class="st1" d="M304.7,242.98v-0.89c1.99-0.19,2.22-0.35,2.22-2.5v-6.52c0-1.96-0.09-2.09-1.99-2.41v-0.76
			c1.65-0.29,3.13-0.7,4.5-1.27c0,1.33,0,2.66,0,3.99v6.97c0,2.15,0.22,2.31,2.28,2.5v0.89H304.7z M307.99,225.54
			c-0.89,0-1.68-0.79-1.68-1.68c0-1.01,0.79-1.74,1.71-1.74c0.89,0,1.61,0.73,1.61,1.74C309.64,224.75,308.91,225.54,307.99,225.54z
			"/>
		<path class="st1" d="M324.93,240.29c-2.03,2.53-4.24,3.07-5.26,3.07c-3.86,0-6.21-3.17-6.21-6.81c0-2.15,0.76-4.15,2.06-5.54
			c1.33-1.49,3.07-2.31,4.72-2.31c2.75,0,4.84,2.38,4.84,4.91c-0.03,0.63-0.13,0.92-0.63,1.04c-0.63,0.13-4.69,0.41-8.45,0.54
			c-0.1,4.24,2.5,5.98,4.75,5.98c1.3,0,2.5-0.54,3.67-1.61L324.93,240.29z M319.49,229.91c-1.46,0-2.88,1.36-3.32,3.93
			c1.77,0,3.55,0,5.41-0.09c0.57,0,0.76-0.16,0.76-0.63C322.37,231.43,321.26,229.91,319.49,229.91z"/>
		<path class="st1" d="M336.08,242.98v-0.89c1.84-0.19,2.03-0.41,2.03-2.56v-5.22c0-2.22-0.79-3.7-2.88-3.7
			c-1.3,0-2.53,0.76-3.51,1.65v7.41c0,2.19,0.19,2.25,2.06,2.44v0.89h-6.84v-0.89c2.09-0.22,2.28-0.35,2.28-2.44v-6.52
			c0-2.06-0.22-2.15-1.93-2.44v-0.82c1.55-0.25,3.1-0.67,4.43-1.27c0,0.73,0,1.74,0,2.5c0.63-0.44,1.33-0.92,2.15-1.46
			c0.89-0.57,1.71-0.95,2.63-0.95c2.53,0,4.12,1.87,4.12,4.94v6.02c0,2.15,0.19,2.25,2.03,2.44v0.89H336.08z"/>
		<path class="st1" d="M356.47,240.13c-1.39,1.84-3.51,3.23-5.41,3.23c-4.02,0-6.4-3.26-6.4-6.65c0-2.5,1.08-4.59,3.2-6.21
			c1.68-1.3,3.58-1.81,4.81-1.81c1.42,0,2.47,0.44,2.94,0.85c0.44,0.35,0.51,0.57,0.51,0.92c0,0.76-0.79,1.42-1.14,1.42
			c-0.16,0-0.28-0.06-0.6-0.32c-0.98-0.89-2.06-1.33-3.2-1.33c-2.09,0-3.93,1.77-3.93,5.07c-0.03,4.4,2.98,5.86,4.81,5.86
			c1.33,0,2.41-0.35,3.86-1.74L356.47,240.13z"/>
		<path class="st1" d="M369.68,240.29c-2.03,2.53-4.24,3.07-5.26,3.07c-3.86,0-6.21-3.17-6.21-6.81c0-2.15,0.76-4.15,2.06-5.54
			c1.33-1.49,3.07-2.31,4.72-2.31c2.75,0,4.84,2.38,4.84,4.91c-0.03,0.63-0.13,0.92-0.63,1.04c-0.63,0.13-4.69,0.41-8.45,0.54
			c-0.1,4.24,2.5,5.98,4.75,5.98c1.3,0,2.5-0.54,3.67-1.61L369.68,240.29z M364.23,229.91c-1.46,0-2.88,1.36-3.32,3.93
			c1.77,0,3.55,0,5.41-0.09c0.57,0,0.76-0.16,0.76-0.63C367.11,231.43,366.01,229.91,364.23,229.91z"/>
	</g>
</g>
</svg>
