<?xml version="1.0" encoding="utf-8"?>
<!-- Generator: Adobe Illustrator 23.0.3, SVG Export Plug-In . SVG Version: 6.00 Build 0)  -->
<svg version="1.1" id="Calque_1" xmlns="http://www.w3.org/2000/svg" xmlns:xlink="http://www.w3.org/1999/xlink" x="0px" y="0px"
	 viewBox="0 0 540.28 279.07" style="enable-background:new 0 0 540.28 279.07;" xml:space="preserve">
<style type="text/css">
	.st0{fill:#563E7C;}
	.st1{fill:#F4F8F9;}
</style>
<path class="st0" d="M431.23,263.95H105.96c-47.8,0-86.55-38.75-86.55-86.55v-72.8c0-47.8,38.75-86.55,86.55-86.55h325.27
	c47.8,0,86.55,38.75,86.55,86.55v72.81C517.78,225.2,479.03,263.95,431.23,263.95z"/>
<g>
	<g>
		<path class="st1" d="M131.29,131.41c7.55,0,12.31,1.5,15.63,4.66c2.62,2.57,4.55,6.32,4.55,11.45c0,6.26-2.57,11.35-6.69,14.45
			c-4.07,3.05-9.26,4.23-15.84,4.23h-12.53v-1.5c4.6-0.43,4.82-0.8,4.82-5.19v-21.36c0-4.6-0.64-4.82-4.82-5.25v-1.5H131.29z
			 M125.88,159.08c0,4.01,1.71,5.14,5.73,5.14c9.63,0,14.56-6.58,14.56-15.95c0-5.83-1.98-10.28-6.21-12.85
			c-2.46-1.55-5.57-2.14-9.15-2.14c-2.41,0-3.69,0.32-4.23,0.75c-0.48,0.32-0.7,0.91-0.7,3V159.08z"/>
		<path class="st1" d="M175.4,161.65c-3.43,4.28-7.17,5.19-8.89,5.19c-6.53,0-10.49-5.35-10.49-11.51c0-3.64,1.28-7.01,3.48-9.37
			c2.25-2.52,5.19-3.91,7.98-3.91c4.66,0,8.19,4.01,8.19,8.3c-0.05,1.07-0.21,1.55-1.07,1.77c-1.07,0.21-7.92,0.7-14.29,0.91
			c-0.16,7.17,4.23,10.12,8.03,10.12c2.19,0,4.23-0.91,6.21-2.73L175.4,161.65z M166.19,144.09c-2.46,0-4.87,2.3-5.62,6.64
			c3,0,6,0,9.15-0.16c0.96,0,1.28-0.27,1.28-1.07C171.06,146.66,169.19,144.09,166.19,144.09z"/>
		<path class="st1" d="M198.52,161.65c-3.43,4.28-7.17,5.19-8.89,5.19c-6.53,0-10.49-5.35-10.49-11.51c0-3.64,1.28-7.01,3.48-9.37
			c2.25-2.52,5.19-3.91,7.98-3.91c4.66,0,8.19,4.01,8.19,8.3c-0.05,1.07-0.21,1.55-1.07,1.77c-1.07,0.21-7.92,0.7-14.29,0.91
			c-0.16,7.17,4.23,10.12,8.03,10.12c2.19,0,4.23-0.91,6.21-2.73L198.52,161.65z M189.31,144.09c-2.46,0-4.87,2.3-5.62,6.64
			c3,0,6,0,9.15-0.16c0.96,0,1.28-0.27,1.28-1.07C194.18,146.66,192.31,144.09,189.31,144.09z"/>
		<path class="st1" d="M201.51,143.83c2.52-0.37,5.3-1.28,7.76-2.3c0,1.29,0,3,0,4.28c0.16-0.11,4.44-2.57,4.66-2.68
			c1.28-0.7,2.41-1.07,3.1-1.07c5.89,0,9.47,4.92,9.47,10.22c0,8.14-6.42,13.27-13.44,14.56c-1.61-0.05-3.05-0.54-3.8-0.96v7.23
			c0,3.96,0.43,4.28,4.55,4.66v1.5h-12.69v-1.5c3.48-0.38,3.91-0.64,3.91-4.23v-24.35c0-3.21-0.11-3.43-3.53-3.91V143.83z
			 M209.28,162.13c1.23,1.23,3.32,2.09,5.08,2.09c4.66,0,7.65-3.91,7.65-9.9c0-5.78-3.37-9.05-7.17-9.05c-1.87,0-4.12,1.23-5.57,2.3
			V162.13z"/>
		<path class="st1" d="M243.64,155.71h-12.31l0.37-3.27h12.31L243.64,155.71z"/>
		<path class="st1" d="M277.25,139.81c-0.48-1.71-1.12-3.48-1.71-4.44c-0.86-1.45-1.39-1.82-4.34-1.82h-5.35v26.07
			c0,4.17,0.43,4.76,5.51,5.08v1.5h-15.58v-1.5c4.98-0.32,5.41-0.86,5.41-5.08v-26.07h-4.87c-2.94,0-3.8,0.32-4.71,1.93
			c-0.64,1.07-1.07,2.36-1.77,4.34h-1.61c0.32-3.27,0.64-6.64,0.8-9.64h1.23c0.8,1.28,1.39,1.23,2.89,1.23h21.2
			c1.5,0,1.93-0.21,2.73-1.23h1.29c0,2.52,0.21,6.37,0.48,9.47L277.25,139.81z"/>
		<path class="st1" d="M294.6,166.2h-12.31v-1.5c3.37-0.32,3.69-0.59,3.69-4.07V149.5c0-3.53-0.21-3.69-3.32-4.07v-1.34
			c2.62-0.43,5.03-1.07,7.55-2.19c0,1.77,0,4.12,0,5.89c1.87-2.78,4.12-5.73,6.8-5.73c1.98,0,3.1,1.23,3.1,2.57
			c0,1.23-0.86,2.41-1.82,2.94c-0.54,0.32-0.96,0.27-1.39-0.11c-0.8-0.8-1.45-1.34-2.41-1.34c-1.12,0-3.11,1.66-4.28,4.39v10.06
			c0,3.53,0.27,3.8,4.39,4.12V166.2z"/>
		<path class="st1" d="M319.38,166.84c-0.8,0-1.98-0.43-2.52-1.02c-0.7-0.7-1.02-1.45-1.28-2.41c-2.14,1.45-4.76,3.43-6.42,3.43
			c-3.8,0-6.53-3.16-6.53-6.58c0-2.62,1.45-4.34,4.39-5.35c3.26-1.12,7.28-2.52,8.46-3.48v-1.07c0-3.8-1.93-6-4.71-6
			c-1.23,0-1.98,0.59-2.52,1.23c-0.59,0.75-0.96,1.93-1.45,3.48c-0.27,0.86-0.75,1.23-1.55,1.23c-1.02,0-2.36-1.07-2.36-2.36
			c0-0.75,0.7-1.39,1.77-2.14c1.55-1.12,4.66-3.1,7.71-3.75c1.61,0,3.27,0.48,4.5,1.45c1.87,1.61,2.73,3.43,2.73,6.21v10.33
			c0,2.46,0.91,3.21,1.87,3.21c0.64,0,1.34-0.27,1.93-0.59l0.54,1.5L319.38,166.84z M315.47,153.3c-1.18,0.59-3.75,1.71-4.98,2.25
			c-2.03,0.91-3.27,1.93-3.27,3.91c0,2.84,2.14,4.12,3.85,4.12c1.39,0,3.32-0.86,4.39-1.93
			C315.47,159.14,315.47,155.82,315.47,153.3z"/>
		<path class="st1" d="M326.12,166.2v-1.5c3.37-0.32,3.75-0.59,3.75-4.23v-11.03c0-3.32-0.16-3.53-3.37-4.07v-1.29
			c2.78-0.48,5.3-1.18,7.6-2.14c0,2.25,0,4.5,0,6.74v11.78c0,3.64,0.38,3.91,3.85,4.23v1.5H326.12z M331.69,136.71
			c-1.5,0-2.84-1.34-2.84-2.84c0-1.71,1.34-2.94,2.89-2.94c1.5,0,2.73,1.23,2.73,2.94C334.47,135.37,333.24,136.71,331.69,136.71z"
			/>
		<path class="st1" d="M356.04,166.2v-1.5c3.1-0.32,3.43-0.7,3.43-4.34v-8.83c0-3.75-1.34-6.26-4.87-6.26
			c-2.19,0-4.28,1.29-5.94,2.78v12.53c0,3.69,0.32,3.8,3.48,4.12v1.5h-11.56v-1.5c3.53-0.37,3.85-0.59,3.85-4.12v-11.03
			c0-3.48-0.38-3.64-3.27-4.12v-1.39c2.62-0.43,5.25-1.12,7.49-2.14c0,1.23,0,2.94,0,4.23c1.07-0.75,2.25-1.55,3.64-2.46
			c1.5-0.96,2.89-1.61,4.44-1.61c4.28,0,6.96,3.16,6.96,8.35v10.17c0,3.64,0.32,3.8,3.43,4.12v1.5H356.04z"/>
		<path class="st1" d="M370.23,166.2v-1.5c3.37-0.32,3.75-0.59,3.75-4.23v-11.03c0-3.32-0.16-3.53-3.37-4.07v-1.29
			c2.78-0.48,5.3-1.18,7.6-2.14c0,2.25,0,4.5,0,6.74v11.78c0,3.64,0.38,3.91,3.85,4.23v1.5H370.23z M375.79,136.71
			c-1.5,0-2.84-1.34-2.84-2.84c0-1.71,1.34-2.94,2.89-2.94c1.5,0,2.73,1.23,2.73,2.94C378.58,135.37,377.35,136.71,375.79,136.71z"
			/>
		<path class="st1" d="M400.15,166.2v-1.5c3.1-0.32,3.43-0.7,3.43-4.34v-8.83c0-3.75-1.34-6.26-4.87-6.26
			c-2.19,0-4.28,1.29-5.94,2.78v12.53c0,3.69,0.32,3.8,3.48,4.12v1.5h-11.56v-1.5c3.53-0.37,3.85-0.59,3.85-4.12v-11.03
			c0-3.48-0.38-3.64-3.27-4.12v-1.39c2.62-0.43,5.25-1.12,7.49-2.14c0,1.23,0,2.94,0,4.23c1.07-0.75,2.25-1.55,3.64-2.46
			c1.5-0.96,2.89-1.61,4.44-1.61c4.28,0,6.96,3.16,6.96,8.35v10.17c0,3.64,0.32,3.8,3.43,4.12v1.5H400.15z"/>
		<path class="st1" d="M421.93,158.39c-1.28,1.02-1.77,2.03-1.77,2.68c0,0.96,0.91,2.03,3.32,2.03c1.98,0,4.23-0.05,6-0.05
			c3.43,0,7.82,1.12,7.82,6.42c0,5.57-6.58,10.81-13.7,10.81c-6.05,0-9.31-3.53-9.42-6.69c0-1.18,0.48-2.19,1.34-3.05
			c1.07-1.12,3.16-2.89,4.39-3.85c-1.93-0.54-3.32-1.77-4.01-2.89c-0.48-0.8-0.64-1.77-0.64-2.3c2.03-0.75,3.85-2.25,4.92-3.69
			L421.93,158.39z M424.5,158.92c-4.98,0-9.1-3.05-9.1-8.08c0-6.1,5.46-8.94,9.63-8.94c1.77,0,3.53,0.48,5.14,1.34
			c2.46,0,5.67-0.43,7.17-0.8l0.32,0.48c-0.32,0.86-1.18,2.35-1.98,2.84c-0.8,0-2.57-0.21-3.32-0.27c0.91,1.23,1.55,2.94,1.55,4.87
			C433.92,156.19,429.11,158.92,424.5,158.92z M425.74,166.84c-2.62,0-3.8,0.32-4.76,1.12c-1.5,1.23-2.57,2.84-2.57,4.39
			c0,2.94,3.05,5.14,7.17,5.14c5.08,0,7.98-2.62,7.98-6.05c0-1.82-0.86-3.27-2.36-3.91C429.86,166.95,427.98,166.84,425.74,166.84z
			 M424.5,143.61c-2.41,0-4.55,2.19-4.55,6.42c0,4.23,2.14,7.17,5.08,7.17c2.36-0.11,4.44-2.09,4.44-6.42
			C429.48,146.61,427.5,143.61,424.5,143.61z"/>
	</g>
</g>
</svg>
