<?xml version="1.0" encoding="utf-8"?>
<!-- Generator: Adobe Illustrator 23.0.3, SVG Export Plug-In . SVG Version: 6.00 Build 0)  -->
<svg version="1.1" id="Calque_1" xmlns="http://www.w3.org/2000/svg" xmlns:xlink="http://www.w3.org/1999/xlink" x="0px" y="0px"
	 viewBox="0 0 259.84 298.43" style="enable-background:new 0 0 259.84 298.43;" xml:space="preserve">
<style type="text/css">
	.st0{fill:#6A8F95;}
	.st1{fill:#728995;}
	.st2{fill:#7B8187;}
	.st3{fill:#738A8F;}
	.st4{fill:#81807F;}
	.st5{fill:#D5DCCE;}
	.st6{fill:#808182;}
	.st7{fill:#E4D6C8;}
	.st8{fill:#817F7F;}
	.st9{fill:#817F7D;}
	.st10{fill:#676868;}
	.st11{fill:#5A6D67;}
	.st12{fill:#798579;}
	.st13{fill:#897A85;}
	.st14{fill:#6B6371;}
	.st15{fill:#A8A8A8;}
	.st16{fill:none;stroke:#939598;stroke-width:2;stroke-miterlimit:10;}
	.st17{fill:#563E7C;stroke:#563E7C;stroke-miterlimit:10;}
	.st18{fill:#F2F0F1;}
	.st19{fill:#F4EDEF;}
	.st20{fill:#21409A;stroke:#939598;stroke-width:3;stroke-miterlimit:10;}
</style>
<path class="st0" d="M254.68,92.72c-0.59,0.49-0.54,1.53-1.66,1.59c-1.75,0.09-3.65,0.04-3.51,2.77c0.04,0.92-1.18,0.57-1.83,0.79
	c0,0-0.06-0.19-0.06-0.19c-0.48-1.38,0.45-2.41,0.9-3.55c0.69-0.78,1.62-1.01,2.6-1.07c0.82-0.05,1.63-0.07,2.06-0.95
	c0.38-0.44,0.83-0.82,1.41-0.42C254.95,91.94,254.95,92.35,254.68,92.72z"/>
<path class="st1" d="M10.65,97.82c-0.58-2.73-2.83-3.37-5.05-4.06c0.09-0.1,0.18-0.2,0.26-0.3c1.56-0.36,3.1-0.47,4.62,0.16
	c1.99,0.97,1.26,2.7,1.18,4.26C11.31,98.04,10.97,98.02,10.65,97.82z"/>
<path class="st2" d="M254.68,92.72c-0.14-0.26-0.24-0.71-0.42-0.74c-0.54-0.11-0.53,0.42-0.65,0.77c-0.42,0.29-0.8,0.23-1.16-0.11
	c-0.51-0.85-0.43-1.64,0.23-2.38c1.31-0.01,2.63-0.03,3.94-0.04C256.7,91.62,256.82,93.05,254.68,92.72z"/>
<path class="st3" d="M4.64,92.67c-0.08-0.34-0.39-0.95,0.21-0.86c0.63,0.09,1.7-0.32,1.83,0.9c-0.15,0.45-0.6,0.59-0.9,0.88
	c-0.06,0.06-0.12,0.12-0.19,0.18C5.28,93.4,4.96,93.03,4.64,92.67z"/>
<path class="st4" d="M248.65,94.27c0.29,1.33-0.4,2.36-1.03,3.41c-0.34,0.06-0.68,0.12-1.02,0.19c-2.63,0.37-5.26,0.11-7.89,0.1
	c-28.61-0.03-57.22-0.01-85.84-0.03c-0.9,0-1.83,0.21-2.7-0.21c-0.03-1.15-0.06-2.3-0.1-3.44c0.11-0.12,0.22-0.25,0.33-0.37
	c0.9-0.6,1.92-0.45,2.91-0.45c30.78-0.01,61.56-0.01,92.33,0c0.91,0,1.84-0.11,2.66,0.44C248.43,94.03,248.54,94.15,248.65,94.27z"
	/>
<path class="st5" d="M150.17,97.73c31.06,0.01,62.13,0.02,93.19,0.03c1.08,0,2.16,0.07,3.24,0.1c-1.04,0.67-2.74-0.09-3.34,1.6
	c-0.12,0.34-0.95,0.34-1.12,0.05c-1.22-2.15-3.24-1.27-4.92-1.27c-27.98-0.05-55.96-0.03-83.94-0.05
	C152.24,98.19,151.1,98.58,150.17,97.73z"/>
<path class="st6" d="M147.59,92.27c0.19-0.19,0.38-0.38,0.58-0.56c1.48-2.01,3.6-1.36,5.43-1.05c2.22,0.38,4.4,0.4,6.59,0.13
	c1.97-0.24,2.06-0.2,1.56,2.08c-2.76,1.19-5.66,0.33-8.48,0.59c-1.03,0.09-2.16-0.29-3,0.67c-0.06,0.06-0.13,0.11-0.19,0.16
	C150.04,92.63,148.35,93.02,147.59,92.27z"/>
<path class="st7" d="M191.39,101.23c-0.06,0.41-0.39,0.44-0.71,0.43c-0.31,0-0.7-0.02-0.7-0.45c0-0.43,0.38-0.45,0.7-0.45
	C191,100.76,191.34,100.77,191.39,101.23z"/>
<path class="st8" d="M109.22,96.2c-0.31,0.18-0.61,0.35-0.92,0.53c-0.04-0.22-0.14-0.46-0.11-0.67c0.1-0.82,0.62-0.42,1.03-0.33
	C109.28,95.88,109.28,96.04,109.22,96.2z"/>
<path class="st9" d="M161.66,92.69c-0.22-0.67,0.72-2.05-1.43-1.31c-2.12,0.73-4.59,0.81-6.91-0.36c-1.72-0.87-3.54-0.29-5.16,0.69
	c-0.07-1.98,1.42-1.46,2.46-1.46c14.8-0.03,29.61-0.03,44.41-0.03c19.21,0.01,38.42,0.03,57.64,0.04c-0.01,0.82-0.02,1.63-0.03,2.45
	c-0.26,0.27-0.58,0.32-0.92,0.25c-0.85-0.64-1.61-0.29-2.37,0.21c-0.36,0.14-0.74,0.21-1.12,0.24c-1.56,0.09-3.11,0.05-4.66,0.03
	c-0.77,0-1.53,0-2.3,0.01c-25.53,0.03-51.06,0.01-76.58,0.01C163.63,93.45,162.49,93.65,161.66,92.69z"/>
<path class="st10" d="M8.67,92.69c22.33,0,44.66,0,66.99,0.01c0.17-0.25,0.34-0.25,0.51,0c10.16,0.01,20.33,0,30.49,0.04
	c1.01,0,2.56-0.62,2.48,1.42c-2.52,0.31-5,0.95-7.57,0.95c-27.2-0.01-54.39,0.01-81.59-0.03c-2.32,0-4.65,0.12-6.96-0.13
	c-0.81-0.14-1.57-0.41-2.34-0.69c-1.57-0.68-3.28-0.38-4.9-0.66c-0.06-0.66,0.38-0.81,0.9-0.88C7.35,92.7,8.01,92.69,8.67,92.69z"/>
<path class="st11" d="M248.68,92.75c0.33-0.02,0.66-0.04,0.99-0.06c0.66-0.51,1.33-0.51,1.98,0.01c0.33,0,0.66,0.01,0.99,0.01
	c0.32,0.01,0.64,0.03,0.96,0.04c-0.14,1.25-1.13,0.98-1.87,0.96c-1.08-0.03-2.07,0.29-3.09,0.56c0,0-0.01-0.1-0.01-0.1
	C248.26,93.69,248.26,93.21,248.68,92.75z"/>
<path class="st12" d="M10.69,94.25c0.66,0,1.33,0,1.99,0c0.9,1.15,0.89,2.29-0.02,3.43c-0.32,0.16-0.63,0.32-0.95,0.48
	c-0.03-0.13-0.06-0.26-0.09-0.4C10.95,96.69,11.7,95.23,10.69,94.25z"/>
<path class="st10" d="M248.68,92.75c-0.01,0.48-0.03,0.95-0.04,1.43c-32.55,0.01-65.09,0.02-97.64,0.03c-0.25,0-0.5-0.05-0.74-0.08
	c-0.22-1.4,0.69-1.43,1.68-1.42c3.24,0.01,6.48,0,9.72-0.01c26.67,0.02,53.33,0.03,80,0.05c0.67,0.61,1.33,0.61,2,0
	C245.34,92.74,247.01,92.75,248.68,92.75z"/>
<path class="st8" d="M12.66,97.67c0.01-1.14,0.01-2.28,0.02-3.43c31.16-0.01,62.31-0.02,93.47-0.03c1,0,2-0.04,3-0.07
	c-0.8,1.09-2.04,0.22-3.24,0.85c1.81,0.53,2.44,1.4,0.77,2.69c-15.46,0.03-30.92,0.07-46.37,0.07c-14.21,0-28.42-0.05-42.63-0.07
	c-0.67-0.95-1.33-0.95-2,0C14.66,97.68,13.66,97.68,12.66,97.67z"/>
<path class="st13" d="M15.66,97.68c0.11-0.72-0.31-1.79,0.88-1.88c1.41-0.1,1.02,1.08,1.12,1.88C17,97.68,16.33,97.68,15.66,97.68z"
	/>
<path class="st14" d="M243.66,92.74c-0.67,1.38-1.33,1.37-2,0C242.33,92.74,243,92.74,243.66,92.74z"/>
<path class="st2" d="M251.66,92.7c-0.66,0-1.32-0.01-1.98-0.01C250.34,91.3,251.01,91.31,251.66,92.7z"/>
<path class="st15" d="M133.6,96.33c-0.5,0.7-1,1.4-1.5,2.09C132.06,97.32,132.4,96.5,133.6,96.33z"/>
<g>
	
		<ellipse transform="matrix(0.7071 -0.7071 0.7071 0.7071 -172.8112 124.1378)" class="st16" cx="63.44" cy="270.67" rx="5.65" ry="5.65"/>
	
		<ellipse transform="matrix(0.9732 -0.2298 0.2298 0.9732 -57.0429 51.4222)" class="st16" cx="192.3" cy="270.67" rx="5.65" ry="5.65"/>
	<path class="st16" d="M239.42,96.81H19.82v166.04H40.5c-0.84,2.44-1.31,5.05-1.31,7.78c0,13.15,10.66,23.8,23.8,23.8
		c13.15,0,23.8-10.66,23.8-23.8c0-2.72-0.46-5.34-1.31-7.78h83.87c-0.84,2.44-1.31,5.05-1.31,7.78c0,13.15,10.66,23.8,23.8,23.8
		s23.8-10.66,23.8-23.8c0-2.72-0.46-5.34-1.31-7.78h25.08V96.81z M79.28,270.63c0,9-7.29,16.29-16.29,16.29
		c-9,0-16.29-7.29-16.29-16.29c0-2.82,0.72-5.47,1.97-7.78h28.64C78.57,265.16,79.28,267.81,79.28,270.63z M191.85,286.92
		c-9,0-16.29-7.29-16.29-16.29c0-2.82,0.72-5.47,1.97-7.78h28.64c1.26,2.31,1.97,4.96,1.97,7.78
		C208.14,279.62,200.85,286.92,191.85,286.92z"/>
</g>
<rect x="35.49" y="140.77" class="st17" width="187.53" height="57.83"/>
<g>
	<path class="st18" d="M89.13,164.38h0.46l-0.28,5.3H78.49v-0.58h0.27c0.65,0,1.07-0.11,1.26-0.34c0.19-0.23,0.31-0.51,0.36-0.86
		c0.05-0.35,0.08-1.23,0.08-2.66v-8.36c0-1.3-0.03-2.15-0.08-2.56c-0.05-0.41-0.18-0.7-0.38-0.86s-0.61-0.25-1.24-0.25v-0.58h9.34
		l0.31,4.25h-0.45c-0.21-1.19-0.46-2.03-0.76-2.53c-0.3-0.5-0.65-0.81-1.06-0.94c-0.41-0.13-1.07-0.19-1.98-0.19h-1.81v7.15h1.39
		c0.64,0,1.08-0.07,1.33-0.21c0.25-0.14,0.42-0.36,0.5-0.65c0.08-0.29,0.12-0.85,0.12-1.69h0.45v5.83h-0.45
		c0-0.95-0.06-1.58-0.18-1.9c-0.12-0.32-0.3-0.53-0.53-0.63c-0.23-0.1-0.63-0.14-1.19-0.14h-1.44v4.03c0,2.02,0.1,3.21,0.3,3.56
		c0.2,0.36,0.74,0.53,1.61,0.53h0.97c0.69,0,1.25-0.12,1.7-0.35s0.87-0.7,1.27-1.42C88.58,166.62,88.9,165.64,89.13,164.38z"/>
	<path class="st18" d="M97.74,167.17h0.42c-0.44,1.95-1.53,2.93-3.28,2.93c-1.12,0-2.07-0.5-2.84-1.5c-0.77-1-1.15-2.32-1.15-3.96
		c0-1.68,0.41-3.05,1.24-4.1c0.83-1.05,1.81-1.57,2.94-1.57c0.68,0,1.31,0.19,1.88,0.58c0.57,0.39,0.86,0.87,0.86,1.43
		c0,0.21-0.05,0.41-0.16,0.59c-0.11,0.18-0.26,0.28-0.46,0.28c-0.42,0-0.68-0.32-0.78-0.97c-0.08-0.49-0.2-0.82-0.36-1.02
		c-0.17-0.19-0.49-0.29-0.97-0.29c-0.86,0-1.51,0.39-1.94,1.17c-0.43,0.78-0.65,1.95-0.65,3.52c0,1.62,0.23,2.88,0.7,3.79
		s1.17,1.37,2.11,1.37C96.58,169.43,97.39,168.68,97.74,167.17z"/>
	<path class="st18" d="M99.36,164.52c0-1.58,0.4-2.89,1.21-3.95c0.81-1.06,1.8-1.59,2.99-1.59c1.19,0,2.19,0.53,3,1.6
		c0.81,1.06,1.21,2.38,1.21,3.95c0,1.73-0.41,3.1-1.23,4.09c-0.82,0.99-1.81,1.49-2.98,1.49s-2.15-0.5-2.97-1.51
		C99.77,167.57,99.36,166.22,99.36,164.52z M100.96,164.58c0,1.83,0.23,3.11,0.69,3.84c0.46,0.73,1.09,1.1,1.92,1.1
		c0.84,0,1.49-0.37,1.93-1.1c0.45-0.73,0.67-2.01,0.67-3.84c0-1.81-0.22-3.1-0.66-3.87c-0.44-0.77-1.09-1.16-1.94-1.16
		c-0.84,0-1.48,0.38-1.93,1.15C101.18,161.47,100.96,162.76,100.96,164.58z"/>
	<path class="st18" d="M111.52,152.41v13.75c0,1.1,0.01,1.79,0.03,2.07c0.02,0.29,0.11,0.5,0.27,0.65c0.16,0.15,0.45,0.23,0.86,0.23
		h0.23v0.58h-4.22v-0.58h0.27c0.39,0,0.66-0.07,0.82-0.21c0.16-0.14,0.26-0.33,0.29-0.58c0.03-0.25,0.05-0.97,0.05-2.16v-10.18
		c0-1.08-0.07-1.76-0.22-2.04s-0.51-0.42-1.08-0.42v-0.58c0.39,0,0.85-0.06,1.38-0.18s0.89-0.23,1.09-0.35H111.52z"/>
	<path class="st18" d="M121.1,162.87h-5.5c-0.03,0.5-0.04,0.86-0.04,1.11c0,1.81,0.22,3.17,0.65,4.08s1.08,1.36,1.94,1.36
		c1.17,0,2-0.68,2.49-2.05h0.46c-0.21,0.85-0.61,1.52-1.22,2s-1.28,0.72-1.99,0.72c-0.67,0-1.3-0.22-1.89-0.66
		c-0.59-0.44-1.08-1.06-1.46-1.87c-0.38-0.8-0.57-1.78-0.57-2.93c0-1.62,0.37-2.98,1.1-4.05c0.73-1.08,1.65-1.61,2.75-1.61
		c1.03,0,1.83,0.41,2.4,1.23C120.77,161.03,121.07,161.92,121.1,162.87z M119.42,162.37c0.02-0.19,0.03-0.36,0.03-0.52
		c0-0.74-0.17-1.31-0.5-1.71s-0.74-0.61-1.22-0.61c-1.17,0-1.87,0.95-2.09,2.84H119.42z"/>
	<path class="st18" d="M129.55,158.98h0.1c0.19,0.56,0.28,1.28,0.28,2.16c0.43-0.72,0.89-1.26,1.39-1.62
		c0.5-0.36,1.03-0.54,1.6-0.54c0.65,0,1.18,0.19,1.58,0.58c0.4,0.38,0.69,0.96,0.85,1.73c0.49-0.77,0.99-1.35,1.5-1.73
		c0.51-0.39,1.04-0.58,1.57-0.58c0.61,0,1.13,0.18,1.55,0.55c0.42,0.37,0.68,0.79,0.77,1.26c0.09,0.47,0.13,1.23,0.13,2.27v3.09
		c0,1.2,0.02,1.93,0.05,2.19c0.04,0.26,0.14,0.45,0.31,0.58c0.17,0.13,0.49,0.19,0.95,0.19v0.58h-3.94v-0.58
		c0.42,0,0.71-0.06,0.88-0.18c0.17-0.12,0.27-0.31,0.31-0.55c0.04-0.25,0.06-0.99,0.06-2.22v-3.43c0-0.7-0.03-1.22-0.09-1.57
		c-0.06-0.35-0.22-0.65-0.48-0.91c-0.26-0.25-0.59-0.38-1-0.38c-0.42,0-0.84,0.18-1.26,0.55c-0.42,0.37-0.84,0.93-1.27,1.67v4.06
		c0,1.1,0.01,1.79,0.03,2.07c0.02,0.28,0.11,0.5,0.27,0.65s0.44,0.23,0.84,0.23v0.58h-3.81v-0.58c0.43,0,0.73-0.06,0.9-0.18
		s0.28-0.3,0.32-0.54c0.04-0.24,0.06-0.99,0.06-2.24v-2.85c0-0.91-0.03-1.56-0.08-1.97s-0.22-0.75-0.5-1.04s-0.62-0.43-1.03-0.43
		c-0.4,0-0.8,0.17-1.22,0.5c-0.41,0.33-0.84,0.84-1.27,1.51v4.29c0,1.13,0.01,1.83,0.04,2.11c0.03,0.28,0.12,0.49,0.29,0.63
		c0.17,0.14,0.47,0.21,0.9,0.21v0.58h-3.86v-0.58c0.42,0,0.72-0.06,0.89-0.18c0.17-0.12,0.27-0.3,0.31-0.55
		c0.04-0.24,0.06-0.98,0.06-2.22v-3.08c0-1.17-0.01-1.89-0.04-2.15c-0.03-0.26-0.13-0.46-0.3-0.6c-0.17-0.13-0.48-0.2-0.92-0.2
		v-0.58C128.2,159.43,128.96,159.24,129.55,158.98z"/>
	<path class="st18" d="M143.35,164.52c0-1.58,0.4-2.89,1.21-3.95c0.81-1.06,1.8-1.59,2.99-1.59c1.19,0,2.19,0.53,3,1.6
		s1.21,2.38,1.21,3.95c0,1.73-0.41,3.1-1.23,4.09c-0.82,0.99-1.81,1.49-2.98,1.49s-2.15-0.5-2.97-1.51
		C143.76,167.57,143.35,166.22,143.35,164.52z M144.95,164.58c0,1.83,0.23,3.11,0.68,3.84s1.09,1.1,1.92,1.1
		c0.84,0,1.49-0.37,1.93-1.1s0.67-2.01,0.67-3.84c0-1.81-0.22-3.1-0.67-3.87c-0.44-0.77-1.09-1.16-1.94-1.16
		c-0.84,0-1.49,0.38-1.93,1.15S144.95,162.76,144.95,164.58z"/>
	<path class="st18" d="M154.38,170.1H154v-13.77c0-1-0.02-1.65-0.06-1.95c-0.04-0.29-0.15-0.51-0.32-0.65s-0.47-0.21-0.89-0.21
		v-0.58c0.38,0,0.83-0.06,1.37-0.18s0.9-0.23,1.09-0.35h0.2v8.14c0.45-0.53,0.91-0.92,1.37-1.18c0.46-0.26,0.93-0.39,1.41-0.39
		c1.14,0,2.07,0.51,2.79,1.54c0.73,1.03,1.09,2.35,1.09,3.95c0,1.61-0.37,2.95-1.12,4.02s-1.71,1.61-2.9,1.61
		c-0.58,0-1.1-0.16-1.54-0.48c-0.44-0.32-0.81-0.79-1.1-1.42C154.97,168.74,154.64,169.38,154.38,170.1z M155.39,161.29v4.03
		c0,1.04,0.05,1.79,0.16,2.24c0.11,0.46,0.36,0.89,0.77,1.31c0.41,0.42,0.88,0.63,1.42,0.63c0.83,0,1.49-0.44,1.98-1.33
		s0.74-2.17,0.74-3.83c0-1.53-0.23-2.7-0.69-3.5c-0.46-0.8-1.07-1.2-1.83-1.2c-0.44,0-0.87,0.14-1.29,0.41
		S155.8,160.74,155.39,161.29z"/>
	<path class="st18" d="M165.94,158.98v7.17c0,1.1,0.01,1.79,0.04,2.07c0.03,0.29,0.12,0.5,0.28,0.65c0.16,0.15,0.45,0.23,0.86,0.23
		h0.2v0.58h-4.25v-0.58h0.33c0.46,0,0.75-0.09,0.89-0.26c0.14-0.17,0.22-0.38,0.24-0.62c0.02-0.24,0.03-0.93,0.03-2.08v-3.12
		c0-1.21-0.04-1.94-0.13-2.21c-0.09-0.27-0.2-0.44-0.35-0.5c-0.14-0.07-0.4-0.1-0.76-0.1h-0.26v-0.58c1.14-0.15,2.03-0.37,2.66-0.67
		H165.94z M164.08,153.73c0-0.36,0.1-0.67,0.29-0.93c0.2-0.26,0.43-0.39,0.71-0.39c0.28,0,0.51,0.13,0.7,0.39
		c0.19,0.26,0.29,0.57,0.29,0.93c0,0.37-0.1,0.68-0.29,0.94c-0.19,0.26-0.43,0.39-0.7,0.39c-0.28,0-0.51-0.13-0.71-0.39
		C164.18,154.41,164.08,154.09,164.08,153.73z"/>
	<path class="st18" d="M170.72,152.41v13.75c0,1.1,0.01,1.79,0.03,2.07c0.02,0.29,0.11,0.5,0.27,0.65c0.16,0.15,0.45,0.23,0.86,0.23
		h0.23v0.58h-4.22v-0.58h0.27c0.39,0,0.66-0.07,0.82-0.21c0.16-0.14,0.26-0.33,0.29-0.58c0.03-0.25,0.05-0.97,0.05-2.16v-10.18
		c0-1.08-0.07-1.76-0.22-2.04s-0.51-0.42-1.08-0.42v-0.58c0.39,0,0.85-0.06,1.38-0.18s0.89-0.23,1.09-0.35H170.72z"/>
	<path class="st18" d="M180.31,162.87h-5.5c-0.03,0.5-0.04,0.86-0.04,1.11c0,1.81,0.22,3.17,0.65,4.08s1.08,1.36,1.94,1.36
		c1.17,0,2-0.68,2.49-2.05h0.46c-0.21,0.85-0.61,1.52-1.22,2s-1.28,0.72-1.99,0.72c-0.67,0-1.3-0.22-1.89-0.66
		c-0.59-0.44-1.08-1.06-1.46-1.87c-0.38-0.8-0.57-1.78-0.57-2.93c0-1.62,0.37-2.98,1.1-4.05c0.73-1.08,1.65-1.61,2.75-1.61
		c1.03,0,1.83,0.41,2.4,1.23C179.97,161.03,180.27,161.92,180.31,162.87z M178.62,162.37c0.02-0.19,0.03-0.36,0.03-0.52
		c0-0.74-0.17-1.31-0.5-1.71s-0.74-0.61-1.22-0.61c-1.17,0-1.87,0.95-2.09,2.84H178.62z"/>
</g>
<g>
	<path class="st19" d="M49.82,178.8c0.46-0.05,0.95-0.08,1.46-0.09c0.51-0.01,0.94-0.02,1.29-0.02c1.11,0,2.05,0.12,2.8,0.37
		c0.75,0.24,1.36,0.58,1.82,1.02s0.79,0.96,0.99,1.57c0.2,0.61,0.3,1.28,0.3,2.02c0,0.67-0.09,1.31-0.28,1.93
		c-0.18,0.62-0.5,1.16-0.95,1.64s-1.06,0.86-1.83,1.14c-0.76,0.29-1.72,0.43-2.87,0.43c-0.16,0-0.37,0-0.62-0.01
		c-0.26,0-0.52-0.01-0.79-0.03c-0.27-0.01-0.53-0.03-0.77-0.04c-0.24-0.01-0.43-0.02-0.55-0.04V178.8z M52.65,179.73
		c-0.17,0-0.39,0-0.65,0.01c-0.26,0.01-0.48,0.03-0.65,0.06v7.9c0.06,0.01,0.15,0.02,0.27,0.02c0.12,0,0.24,0.01,0.36,0.01
		s0.24,0.01,0.36,0.01c0.12,0,0.21,0.01,0.28,0.01c0.9,0,1.62-0.11,2.18-0.34c0.56-0.23,0.99-0.53,1.3-0.91
		c0.31-0.38,0.52-0.82,0.63-1.31c0.11-0.49,0.17-1,0.17-1.53c0-0.46-0.05-0.92-0.15-1.39c-0.1-0.47-0.3-0.89-0.6-1.26
		c-0.3-0.38-0.73-0.68-1.29-0.92C54.29,179.85,53.56,179.73,52.65,179.73z"/>
	<path class="st19" d="M61.35,178.8h7.56v1.04h-6.03v3.23h5.57v1.04h-5.57v3.51h6.12v1.04h-7.65V178.8z"/>
	<path class="st19" d="M72.38,178.8h7.56v1.04H73.9v3.23h5.57v1.04H73.9v3.51h6.12v1.04h-7.65V178.8z"/>
	<path class="st19" d="M83.28,178.9c0.47-0.08,0.97-0.14,1.51-0.17s1.07-0.04,1.6-0.04c0.56,0,1.14,0.04,1.72,0.13
		c0.58,0.08,1.11,0.24,1.59,0.47s0.87,0.54,1.17,0.93c0.3,0.4,0.45,0.9,0.45,1.51c0,0.6-0.14,1.11-0.42,1.52
		c-0.28,0.41-0.66,0.75-1.12,1.01s-1,0.44-1.6,0.56c-0.6,0.11-1.22,0.17-1.86,0.17c-0.06,0-0.16,0-0.3,0c-0.14,0-0.29,0-0.44-0.01
		c-0.15,0-0.3-0.01-0.45-0.02c-0.15-0.01-0.25-0.02-0.31-0.03v3.75h-1.53V178.9z M86.43,179.71c-0.32,0-0.63,0-0.92,0.01
		c-0.29,0.01-0.53,0.03-0.7,0.07v4.09c0.06,0.02,0.16,0.03,0.29,0.04c0.14,0,0.28,0.01,0.42,0.01c0.15,0,0.29,0.01,0.42,0.01
		c0.14,0,0.23,0,0.3,0c0.42,0,0.83-0.03,1.25-0.09c0.41-0.06,0.78-0.17,1.12-0.33c0.33-0.16,0.6-0.38,0.8-0.68
		c0.2-0.29,0.3-0.66,0.3-1.11c0-0.38-0.1-0.71-0.29-0.97c-0.19-0.26-0.44-0.46-0.76-0.62c-0.31-0.16-0.67-0.27-1.06-0.33
		C87.22,179.74,86.82,179.71,86.43,179.71z"/>
	<path class="st19" d="M94.85,184.09h6.29v1.04h-6.29V184.09z"/>
	<path class="st19" d="M111.93,179.88c-0.21-0.07-0.44-0.12-0.69-0.15s-0.56-0.05-0.91-0.05c-0.5,0-1,0.07-1.49,0.21
		s-0.92,0.37-1.29,0.69c-0.38,0.32-0.68,0.74-0.9,1.25c-0.23,0.52-0.34,1.15-0.34,1.9c0,0.68,0.1,1.27,0.3,1.78
		c0.2,0.51,0.49,0.93,0.85,1.27c0.36,0.34,0.8,0.59,1.31,0.76c0.51,0.17,1.08,0.25,1.71,0.25c0.32,0,0.62-0.02,0.89-0.06
		c0.28-0.04,0.53-0.1,0.77-0.18v-1.41h1.36v1.9l0.02,0.03c-0.37,0.22-0.83,0.4-1.4,0.54c-0.56,0.15-1.25,0.22-2.06,0.22
		c-0.77,0-1.49-0.1-2.14-0.3c-0.66-0.2-1.22-0.51-1.7-0.92c-0.48-0.41-0.85-0.94-1.11-1.59c-0.26-0.64-0.4-1.41-0.4-2.29
		c0-0.92,0.15-1.7,0.44-2.35c0.29-0.64,0.69-1.17,1.2-1.58c0.5-0.41,1.09-0.71,1.76-0.9c0.67-0.19,1.38-0.28,2.14-0.28
		c0.42,0,0.78,0.01,1.08,0.04s0.58,0.06,0.81,0.1c0.23,0.04,0.44,0.1,0.62,0.16s0.35,0.14,0.52,0.23h0.02v2.23h-1.36V179.88z"/>
	<path class="st19" d="M115.42,183.74c0-1.64,0.38-2.9,1.13-3.78c0.75-0.88,1.91-1.33,3.48-1.33c0.86,0,1.58,0.12,2.17,0.37
		c0.59,0.25,1.07,0.59,1.44,1.04c0.37,0.45,0.63,0.98,0.79,1.61s0.24,1.32,0.24,2.09c0,1.64-0.38,2.9-1.13,3.78
		c-0.75,0.88-1.92,1.33-3.51,1.33c-0.84,0-1.56-0.12-2.15-0.37c-0.59-0.24-1.06-0.59-1.43-1.04c-0.37-0.45-0.63-0.98-0.79-1.61
		S115.42,184.51,115.42,183.74z M117.02,183.74c0,0.54,0.05,1.06,0.14,1.55c0.09,0.49,0.26,0.92,0.49,1.29
		c0.23,0.37,0.54,0.67,0.92,0.89c0.38,0.22,0.87,0.33,1.46,0.33c1.06,0,1.83-0.33,2.31-0.99s0.73-1.68,0.73-3.07
		c0-0.54-0.05-1.05-0.14-1.54c-0.09-0.49-0.26-0.93-0.49-1.3c-0.23-0.37-0.55-0.67-0.94-0.89s-0.89-0.33-1.48-0.33
		c-1.04,0-1.81,0.33-2.29,1C117.26,181.33,117.02,182.36,117.02,183.74z"/>
	<path class="st19" d="M129.19,182.5l-0.99-1.42h-0.07l0.19,1.42v6.18h-1.45v-9.87h1.01l5.16,6.15l0.95,1.35h0.09l-0.2-1.35v-6.15
		h1.45v9.87h-1.01L129.19,182.5z"/>
	<path class="st19" d="M139.36,187.28c0.37,0.15,0.78,0.28,1.24,0.37s0.92,0.15,1.39,0.15c0.4,0,0.78-0.03,1.14-0.09
		c0.36-0.06,0.67-0.16,0.93-0.3c0.26-0.14,0.47-0.31,0.62-0.51c0.15-0.21,0.23-0.45,0.23-0.73c0-0.38-0.17-0.7-0.5-0.94
		c-0.34-0.24-0.76-0.46-1.26-0.65c-0.5-0.19-1.05-0.37-1.64-0.55c-0.59-0.18-1.13-0.39-1.64-0.63c-0.5-0.24-0.92-0.54-1.26-0.9
		c-0.34-0.35-0.51-0.8-0.51-1.35c0-0.38,0.1-0.73,0.3-1.04c0.2-0.31,0.49-0.57,0.85-0.79c0.37-0.22,0.81-0.38,1.33-0.5
		c0.52-0.12,1.1-0.18,1.74-0.18c0.74,0,1.4,0.04,2,0.12c0.6,0.08,1.08,0.19,1.43,0.32l0.04-0.01v0.03h0.02l-0.02,0.04v2.26h-1.36
		v-1.51c-0.31-0.06-0.64-0.1-1.01-0.14c-0.37-0.04-0.76-0.06-1.18-0.06c-0.4,0-0.77,0.04-1.09,0.11c-0.33,0.08-0.6,0.18-0.83,0.3
		c-0.23,0.13-0.4,0.28-0.52,0.44c-0.12,0.17-0.18,0.35-0.18,0.54c0,0.37,0.17,0.67,0.5,0.92c0.34,0.24,0.76,0.46,1.26,0.66
		c0.5,0.19,1.05,0.38,1.64,0.57c0.59,0.19,1.13,0.41,1.64,0.66c0.5,0.25,0.92,0.55,1.26,0.9s0.51,0.78,0.51,1.3
		c0,0.42-0.1,0.8-0.3,1.14c-0.2,0.34-0.49,0.63-0.86,0.87c-0.38,0.25-0.83,0.43-1.38,0.56c-0.54,0.13-1.16,0.2-1.85,0.2
		c-0.47,0-0.91-0.03-1.32-0.08c-0.42-0.06-0.8-0.13-1.15-0.21c-0.35-0.08-0.66-0.17-0.94-0.27c-0.28-0.09-0.49-0.17-0.65-0.24
		L138,188v-2.29h1.36V187.28z"/>
	<path class="st19" d="M156.06,179.88c-0.21-0.07-0.44-0.12-0.69-0.15s-0.56-0.05-0.91-0.05c-0.5,0-1,0.07-1.49,0.21
		s-0.92,0.37-1.29,0.69c-0.38,0.32-0.68,0.74-0.9,1.25c-0.23,0.52-0.34,1.15-0.34,1.9c0,0.68,0.1,1.27,0.3,1.78
		c0.2,0.51,0.49,0.93,0.85,1.27c0.36,0.34,0.8,0.59,1.31,0.76c0.51,0.17,1.08,0.25,1.71,0.25c0.32,0,0.62-0.02,0.89-0.06
		c0.28-0.04,0.53-0.1,0.77-0.18v-1.41h1.36v1.9l0.02,0.03c-0.37,0.22-0.83,0.4-1.4,0.54c-0.56,0.15-1.25,0.22-2.06,0.22
		c-0.77,0-1.49-0.1-2.14-0.3c-0.66-0.2-1.22-0.51-1.7-0.92c-0.48-0.41-0.85-0.94-1.11-1.59c-0.26-0.64-0.4-1.41-0.4-2.29
		c0-0.92,0.15-1.7,0.44-2.35c0.29-0.64,0.69-1.17,1.2-1.58c0.5-0.41,1.09-0.71,1.76-0.9c0.67-0.19,1.38-0.28,2.14-0.28
		c0.42,0,0.78,0.01,1.08,0.04s0.58,0.06,0.81,0.1c0.23,0.04,0.44,0.1,0.62,0.16s0.35,0.14,0.52,0.23h0.02v2.23h-1.36V179.88z"/>
	<path class="st19" d="M159.77,178.8h8.83v1.04h-3.66v7.78h3.66v1.04h-8.83v-1.04h3.64v-7.78h-3.64V178.8z"/>
	<path class="st19" d="M171.67,178.8h7.56v1.04h-6.03v3.23h5.57v1.04h-5.57v3.51h6.12v1.04h-7.65V178.8z"/>
	<path class="st19" d="M184.35,182.5l-0.99-1.42h-0.07l0.19,1.42v6.18h-1.45v-9.87h1.01l5.16,6.15l0.95,1.35h0.09l-0.2-1.35v-6.15
		h1.45v9.87h-1.01L184.35,182.5z"/>
	<path class="st19" d="M200.18,179.88c-0.21-0.07-0.44-0.12-0.69-0.15s-0.56-0.05-0.91-0.05c-0.5,0-1,0.07-1.49,0.21
		s-0.92,0.37-1.29,0.69c-0.38,0.32-0.68,0.74-0.9,1.25c-0.23,0.52-0.34,1.15-0.34,1.9c0,0.68,0.1,1.27,0.3,1.78
		c0.2,0.51,0.49,0.93,0.85,1.27c0.36,0.34,0.8,0.59,1.31,0.76c0.51,0.17,1.08,0.25,1.71,0.25c0.32,0,0.62-0.02,0.89-0.06
		c0.28-0.04,0.53-0.1,0.77-0.18v-1.41h1.36v1.9l0.02,0.03c-0.37,0.22-0.83,0.4-1.4,0.54c-0.56,0.15-1.25,0.22-2.06,0.22
		c-0.77,0-1.49-0.1-2.14-0.3c-0.66-0.2-1.22-0.51-1.7-0.92c-0.48-0.41-0.85-0.94-1.11-1.59c-0.26-0.64-0.4-1.41-0.4-2.29
		c0-0.92,0.15-1.7,0.44-2.35c0.29-0.64,0.69-1.17,1.2-1.58c0.5-0.41,1.09-0.71,1.76-0.9c0.67-0.19,1.38-0.28,2.14-0.28
		c0.42,0,0.78,0.01,1.08,0.04s0.58,0.06,0.81,0.1c0.23,0.04,0.44,0.1,0.62,0.16s0.35,0.14,0.52,0.23h0.02v2.23h-1.36V179.88z"/>
	<path class="st19" d="M204.76,178.8h7.56v1.04h-6.03v3.23h5.57v1.04h-5.57v3.51h6.12v1.04h-7.65V178.8z"/>
</g>
<g>
	<line class="st20" x1="59.38" y1="3.06" x2="199.86" y2="3.62"/>
	<line class="st20" x1="59.38" y1="3.93" x2="4.77" y2="93.83"/>
	<line class="st20" x1="197.36" y1="1.96" x2="254.87" y2="92.7"/>
</g>
</svg>
