<?xml version="1.0" encoding="utf-8"?>
<!-- Generator: Adobe Illustrator 23.0.3, SVG Export Plug-In . SVG Version: 6.00 Build 0)  -->
<svg version="1.1" id="Calque_1" xmlns="http://www.w3.org/2000/svg" xmlns:xlink="http://www.w3.org/1999/xlink" x="0px" y="0px"
	 viewBox="0 0 137.3 141.21" style="enable-background:new 0 0 137.3 141.21;" xml:space="preserve">
<style type="text/css">
	.st0{fill:none;}
	.st1{fill:#7B56A3;}
	.st2{fill:#FAFBFB;}
	.st3{fill:#F7F0F2;}
</style>
<path class="st0" d="M-167.38-250.87c0-28.07,42.19-50.79,94.33-50.79"/>
<g>
	<g>
		<circle class="st1" cx="68.1" cy="76.26" r="56.69"/>
	</g>
	<g>
		<path class="st2" d="M54.01,52.65h8.17c5.27,0,8.84,0.24,10.7,0.73c1.86,0.48,3.27,1.28,4.24,2.39c0.97,1.11,1.57,2.34,1.82,3.7
			c0.24,1.36,0.36,4.02,0.36,8v14.71c0,3.77-0.18,6.29-0.53,7.56c-0.35,1.27-0.97,2.27-1.85,2.98c-0.88,0.72-1.97,1.22-3.27,1.5
			c-1.3,0.29-3.25,0.43-5.86,0.43H54.01V52.65z M64.93,59.83v27.62c1.57,0,2.54-0.32,2.91-0.95c0.36-0.63,0.54-2.35,0.54-5.15V65.05
			c0-1.9-0.06-3.12-0.18-3.66c-0.12-0.54-0.4-0.93-0.83-1.18C66.93,59.96,66.12,59.83,64.93,59.83z"/>
	</g>
	<g>
		<path class="st3" d="M102.51,104.67v1.28c-2.21,2.46-4.24,4.49-6.09,6.09c-1.85,1.6-3.65,2.83-5.42,3.69
			c-1.76,0.86-3.47,1.29-5.11,1.29c-1.42,0-2.64-0.28-3.66-0.85c-1.02-0.57-1.79-1.39-2.31-2.48c-0.52-1.09-0.78-2.37-0.78-3.86
			c0-1.17,0.19-2.41,0.56-3.72c0.37-1.31,0.92-2.63,1.63-3.97c0.71-1.34,1.58-2.71,2.61-4.13c1.03-1.42,2.25-2.91,3.64-4.48
			c1.45-1.62,2.87-3.02,4.28-4.19c1.41-1.18,2.68-2.1,3.83-2.77c1.14-0.67,2.21-1.17,3.19-1.5c0.98-0.33,1.79-0.49,2.44-0.49
			c0.66,0,1.22,0.16,1.68,0.47c0.46,0.32,0.82,0.78,1.07,1.38c0.25,0.61,0.37,1.3,0.37,2.09c0,1.49-0.51,3.14-1.52,4.96
			c-1.01,1.82-2.28,3.58-3.79,5.28c-1.51,1.7-2.96,3.08-4.33,4.15c-1.37,1.07-2.37,1.61-2.97,1.61c-0.41,0-0.79-0.16-1.13-0.48
			c-0.35-0.32-0.52-0.69-0.52-1.1c0-0.75,0.4-1.66,1.19-2.72c0.8-1.07,1.66-2.04,2.6-2.93c0.94-0.89,1.5-1.33,1.69-1.33
			c0.09,0,0.14,0.04,0.14,0.12c0,0.12-0.07,0.32-0.21,0.61c-0.14,0.29-0.21,0.47-0.21,0.53c0,0.11,0.04,0.16,0.12,0.16
			c0.22,0,0.87-0.6,1.93-1.8c1.07-1.2,2.04-2.52,2.93-3.96c0.89-1.44,1.33-2.62,1.33-3.54c0-0.38-0.08-0.67-0.25-0.88
			c-0.16-0.2-0.41-0.31-0.74-0.31c-0.92,0-2.32,0.75-4.19,2.24c-1.87,1.49-3.8,3.39-5.76,5.7c-1.97,2.31-3.61,4.69-4.92,7.15
			c-1.32,2.46-1.97,4.62-1.97,6.49c0,1.08,0.16,1.98,0.48,2.7c0.32,0.72,0.8,1.28,1.42,1.68c0.62,0.39,1.38,0.59,2.26,0.59
			c1.91,0,4.07-0.74,6.49-2.23C96.94,109.76,99.61,107.57,102.51,104.67z"/>
	</g>
</g>
</svg>
